<svg xmlns="http://www.w3.org/2000/svg" viewBox="0 0 501.605 414.335"><g data-name="Layer 2"><g data-name="Layer 1"><rect width="292.014" height="368.68" x="43.839" y="44.654" fill="#dae0e0"/><polygon fill="#b1b2b2" points="102.765 413.335 101.537 413.335 101.537 45.269 44.448 45.269 44.448 413.335 43.219 413.335 43.219 44.041 102.765 44.041 102.765 413.335"/><polygon fill="#b1b2b2" points="161.083 413.335 159.854 413.335 159.854 45.269 102.765 45.269 102.765 413.335 101.537 413.335 101.537 44.041 161.083 44.041 161.083 413.335"/><rect width="292.018" height="1.228" x="43.834" y="44.041" fill="#b1b2b2"/><rect width="292.018" height="1.228" x="43.834" y="102.358" fill="#b1b2b2"/><rect width="292.018" height="1.228" x="43.834" y="102.358" fill="#b1b2b2"/><rect width="292.018" height="1.228" x="43.834" y="160.675" fill="#b1b2b2"/><rect width="292.018" height="1.228" x="43.834" y="160.675" fill="#b1b2b2"/><rect width="292.018" height="1.229" x="43.834" y="218.992" fill="#b1b2b2"/><rect width="292.018" height="1.229" x="43.834" y="218.992" fill="#b1b2b2"/><rect width="292.018" height="1.229" x="43.834" y="277.31" fill="#b1b2b2"/><rect width="292.018" height="1.229" x="43.834" y="277.31" fill="#b1b2b2"/><rect width="292.018" height="1.229" x="43.834" y="335.628" fill="#b1b2b2"/><rect width="292.018" height="1.229" x="43.834" y="335.628" fill="#b1b2b2"/><rect width="292.018" height="1.229" x="43.834" y="393.945" fill="#b1b2b2"/><polygon fill="#b1b2b2" points="219.83 413.335 218.601 413.335 218.601 45.269 161.525 45.269 161.525 413.335 160.297 413.335 160.297 44.041 219.83 44.041 219.83 413.335"/><polygon fill="#b1b2b2" points="278.148 413.335 276.92 413.335 276.92 45.269 219.83 45.269 219.83 413.335 218.601 413.335 218.601 44.041 278.148 44.041 278.148 413.335"/><polygon fill="#b1b2b2" points="336.465 413.335 335.237 413.335 335.237 45.269 278.148 45.269 278.148 413.335 276.92 413.335 276.92 44.041 336.465 44.041 336.465 413.335"/><rect width="136.48" height="6.389" x="365.125" y="120.168" fill="#7dbcbc"/><path fill="#c0f1f2" d="M434.52745,86.62463h10.1877a1.16223,1.16223,0,0,1,1.16223,1.16223v32.381a0,0,0,0,1,0,0H433.36522a0,0,0,0,1,0,0v-32.381A1.16223,1.16223,0,0,1,434.52745,86.62463Z"/><path fill="#c0f1f2" d="M438.713,80.76049h1.81668a1.16223,1.16223,0,0,1,1.16223,1.16223v4.81284a0,0,0,0,1,0,0h-4.14114a0,0,0,0,1,0,0V81.92271A1.16223,1.16223,0,0,1,438.713,80.76049Z"/><rect width="3.55" height="12.542" x="392.102" y="126.557" fill="#c0f1f2"/><rect width="3.55" height="12.542" x="476.936" y="126.557" fill="#c0f1f2"/><path fill="#c0f1f2" d="M386.34234,98.33814H405.8476a1.16223,1.16223,0,0,1,1.16223,1.16223v20.66749a0,0,0,0,1,0,0H385.18011a0,0,0,0,1,0,0V99.50037A1.16223,1.16223,0,0,1,386.34234,98.33814Z"/><rect width="21.829" height=".493" x="385.18" y="103.83" fill="#7dbcbc"/><path fill="#7dbcbc" d="M396.09534,112.48731a3.23413,3.23413,0,1,1,3.2334-3.23438A3.23835,3.23835,0,0,1,396.09534,112.48731Zm0-5.9751a2.741,2.741,0,1,0,2.74121,2.74072A2.74478,2.74478,0,0,0,396.09534,106.51221Z"/><rect width="12.513" height=".493" x="433.365" y="97.204" fill="#7dbcbc"/><path fill="#c0f1f2" d="M466.079,86.62463h10.1877a1.16223,1.16223,0,0,1,1.16223,1.16223v32.381a0,0,0,0,1,0,0H464.91675a0,0,0,0,1,0,0v-32.381A1.16223,1.16223,0,0,1,466.079,86.62463Z"/><path fill="#c0f1f2" d="M470.26449,80.76049h1.81668a1.16223,1.16223,0,0,1,1.16223,1.16223v4.81284a0,0,0,0,1,0,0h-4.14114a0,0,0,0,1,0,0V81.92271A1.16223,1.16223,0,0,1,470.26449,80.76049Z"/><rect width="12.513" height=".493" x="464.917" y="97.204" fill="#7dbcbc"/><path fill="#c0f1f2" d="M449.31723,80.18539h12.58964a1.16223,1.16223,0,0,1,1.16223,1.16223v38.82024a0,0,0,0,1,0,0H448.155a0,0,0,0,1,0,0V81.34762A1.16223,1.16223,0,0,1,449.31723,80.18539Z"/><path fill="#c0f1f2" d="M454.30622,73.19551h2.61165a1.16223,1.16223,0,0,1,1.16223,1.16223v5.95987a0,0,0,0,1,0,0H453.144a0,0,0,0,1,0,0V74.35774A1.16223,1.16223,0,0,1,454.30622,73.19551Z"/><rect width="14.914" height=".588" x="448.155" y="92.796" fill="#7dbcbc"/><circle cx="277.232" cy="207.71" r="9.322" fill="#57c984"/><path fill="#4fba75" d="M270.06578,211.73349a9.32172,9.32172,0,0,1,3.09174-12.407c-.16465.08017-.32832.16412-.49007.255a9.3223,9.3223,0,1,0,9.12816,16.25724c.16176-.09082.31863-.18688.47281-.28569A9.32175,9.32175,0,0,1,270.06578,211.73349Z"/><ellipse cx="272.71" cy="204.831" fill="#4fba75" rx="1.06" ry=".795" transform="rotate(-50.807 272.71 204.831)"/><ellipse cx="278.231" cy="206.989" fill="#4fba75" rx="1.225" ry=".928" transform="rotate(-29.313 278.231 206.99)"/><ellipse cx="283.277" cy="207.378" fill="#4fba75" rx="1.202" ry=".981" transform="rotate(-9.007 283.277 207.378)"/><ellipse cx="279.565" cy="213.413" fill="#4fba75" rx=".981" ry="1.246" transform="rotate(-59.313 279.565 213.413)"/><circle cx="272.596" cy="210.366" r=".742" fill="#4fba75"/><ellipse cx="277.743" cy="200.424" fill="#4fba75" rx="1.034" ry="1.378" transform="rotate(-74.314 277.74 200.424)"/><circle cx="275.736" cy="213.74" r=".61" fill="#4fba75"/><circle cx="281.42" cy="203.509" r=".61" fill="#4fba75"/><path fill="#57c984" d="M266.86072 200.15187a6.44251 6.44251 0 012.38957 2.74012l1.81819-2.17783s-1.12477.38138-3.5198-1.55646zM278.823 195.04929a6.44264 6.44264 0 01-1.305 3.39343l2.77521.589s-.863-.816-.26975-3.83911zM269.29548 212.166a9.4363 9.4363 0 01-.42547-.85659c-.121.41147-.60689 1.38934-2.55712 2.62863l.723.969a6.33062 6.33062 0 013.20916-1.36021A9.36509 9.36509 0 01269.29548 212.166zM286.55362 207.66423a9.34874 9.34874 0 01-.28464 2.322 6.57068 6.57068 0 013.297-.03908l.12289-1.20273A6.16263 6.16263 0 01286.55362 207.66423zM287.58785 214.94459a6.44258 6.44258 0 01-2.41138-2.721l-1.80073 2.19228s1.12168-.39035 3.53211 1.52831zM280.93613 219.93549a6.44258 6.44258 0 01-.19687-3.63037l-2.77342.59742s1.12122.39168 1.81617 3.39308zM288.855 202.72242a6.44252 6.44252 0 01-3.58777.5884l.8939 2.69252s.26811-1.157 3.17673-2.17253zM283.63 200.9272a8.50142 8.50142 0 011.444-2.1046l-.96132-.7332a5.41571 5.41571 0 01-1.909 1.73294A9.26585 9.26585 0 01283.63 200.9272zM272.82227 215.922a8.92151 8.92151 0 01-.72311 2.26068l1.13668.41191a5.10814 5.10814 0 011.12817-2.01587A9.356 9.356 0 01272.82227 215.922zM268.10425 207.42733a9.34445 9.34445 0 01.17941-1.64563 9.13381 9.13381 0 01-2.27667-.16709l-.1273 1.20224A5.10621 5.10621 0 01268.10425 207.42733zM273.02662 199.39152a9.32677 9.32677 0 011.47016-.59358 3.67052 3.67052 0 01-1.2611-1.84359l-.68351.33715A3.95046 3.95046 0 01273.02662 199.39152z"/><path fill="#4fba75" d="M266.48379 200.64005a.33124.33124 0 01-.42979-.48416l1.2696-1.7369a.3312.3312 0 11.53481.39082l-1.2696 1.73689A.32769.32769 0 01266.48379 200.64005zM280.59914 195.49453a.33056.33056 0 01-.19523.04061l-2.14047-.217a.33132.33132 0 01.06666-.65927l2.14046.217a.33133.33133 0 01.12858.61866zM289.87516 210.76389a.33128.33128 0 01-.49181-.31973l.19922-2.14236a.33132.33132 0 11.65978.06141l-.19921 2.14236A.33117.33117 0 01289.87516 210.76389zM286.96152 216.76708a.33129.33129 0 01-.43576-.47586l1.21531-1.77543a.33128.33128 0 01.54676.37421l-1.21531 1.77543A.33056.33056 0 01286.96152 216.76708zM281.52236 220.13843a.33535.33535 0 01-.03728.018l-1.9916.814a.33123.33123 0 11-.25057-.61324l1.9916-.814a.33125.33125 0 01.28785.59527zM273.78156 219.13059a.331.331 0 01-.29951.01283l-1.95835-.8911a.3313.3313 0 01.27426-.60318l1.95835.8911a.33134.33134 0 01.02525.59035zM267.4274 215.66565a.33129.33129 0 01-.4297-.09414l-1.26642-1.73918a.3313.3313 0 01.53576-.38987l1.26642 1.73919a.33112.33112 0 01-.0729.46266A.30367.30367 0 01267.4274 215.66565zM265.94974 207.59712a.33129.33129 0 01-.49067-.33026l.26795-2.1347a.33124.33124 0 11.65732.08259l-.26794 2.13469A.33033.33033 0 01265.94974 207.59712zM285.54282 199.52309a.33127.33127 0 01-.39368-.052l-1.53827-1.50418a.33128.33128 0 11.46317-.47377l1.53827 1.50418a.33128.33128 0 01-.06949.5258zM289.77449 204.53918l-.02441.01247a.33149.33149 0 01-.43929-.16321l-.89636-1.95588a.33132.33132 0 01.60246-.27594l.89635 1.95588A.33142.33142 0 01289.77449 204.53918zM273.59121 196.91674l-.02668.0135-1.2482.56133a.3313.3313 0 11-.27178-.60429l1.24821-.56134a.33129.33129 0 01.29845.5908z"/><circle cx="262.345" cy="93.721" r="9.245" fill="#57c984"/><path fill="#4fba75" d="M256.97493,87.59034a9.24427,9.24427,0,0,1,12.67179.462c-.11148-.14336-.22642-.285-.34765-.42339A9.24485,9.24485,0,1,0,255.391,99.81231c.12122.13839.24652.271.37394.40035A9.24429,9.24429,0,0,1,256.97493,87.59034Z"/><ellipse cx="264.214" cy="88.744" fill="#4fba75" rx=".788" ry="1.051" transform="rotate(-62.712 264.214 88.744)"/><ellipse cx="263.249" cy="94.543" fill="#4fba75" rx=".92" ry="1.214" transform="rotate(-41.218 263.25 94.543)"/><ellipse cx="263.904" cy="99.519" fill="#4fba75" rx=".972" ry="1.193" transform="rotate(-20.912 263.904 99.52)"/><ellipse cx="257.288" cy="97.152" fill="#4fba75" rx="1.235" ry=".972" transform="rotate(-71.218 257.288 97.152)"/><circle cx="258.819" cy="89.766" r=".736" fill="#4fba75"/><ellipse cx="269.519" cy="92.727" fill="#4fba75" rx="1.367" ry="1.025" transform="rotate(-86.218 269.52 92.727)"/><circle cx="256.188" cy="93.503" r=".605" fill="#4fba75"/><circle cx="267.278" cy="96.926" r=".605" fill="#4fba75"/><path fill="#57c984" d="M267.55764 82.111a6.38912 6.38912 0 01-2.17008 2.8793l2.48523 1.31878s-.60017-1.01342.79029-3.73388zM274.9561 92.67493a6.389 6.389 0 01-3.55981-.57212l-.00384 2.81346s.61523-1.00434 3.67015-1.04712zM256.39765 86.93134a9.36137 9.36137 0 01.74417-.58809c-.424-.03328-1.47232-.30469-3.07383-1.9436l-.79237.89979a6.27805 6.27805 0 011.9764 2.83579A9.28763 9.28763 0 01256.39765 86.93134zM264.29649 102.75707a9.27145 9.27145 0 01-2.31139.1988 6.51611 6.51611 0 01.71238 3.19128l1.19223-.1268A6.11141 6.11141 0 01264.29649 102.75707zM257.44348 105.25a6.389 6.389 0 012.147-2.89654l-2.49568-1.29889s.60825 1.00859-.76045 3.74007zM251.23975 99.81639a6.389 6.389 0 013.4825-.9337l-1.14706-2.569s-.15071 1.16811-2.921 2.45646zM269.56262 103.97926a6.389 6.389 0 01-1.30491-3.36107l-2.42986 1.41822s1.17757.02347 2.758 2.63814zM270.23577 98.54191a8.43092 8.43092 0 012.33761.97064l.51481-1.08282a5.37082 5.37082 0 01-2.07208-1.49789A9.18928 9.18928 0 01270.23577 98.54191zM253.47448 91.122a8.84713 8.84713 0 01-2.34161-.23921L250.9657 92.07a5.0658 5.0658 0 012.18691.68235A9.27863 9.27863 0 01253.47448 91.122zM260.75219 84.806a9.26762 9.26762 0 011.63356-.16256 9.058 9.058 0 01-.30359-2.24337l-1.19266.12242A5.0638 5.0638 0 01260.75219 84.806zM269.55681 87.93863a9.25061 9.25061 0 01.87673 1.30516 3.64023 3.64023 0 011.531-1.60087l-.467-.59427A3.91763 3.91763 0 01269.55681 87.93863z"/><path fill="#4fba75" d="M267.00682 81.84512a.32848.32848 0 01.38189-.51609l1.94514.87666a.32844.32844 0 11-.26983.59891l-1.94513-.87666A.325.325 0 01267.00682 81.84512zM274.88741 94.48952a.32784.32784 0 01-.07935-.18114l-.22733-2.12141a.32856.32856 0 01.65336-.07019l.22733 2.12141a.32857.32857 0 01-.574.25133zM261.96818 106.61426a.32852.32852 0 01.20965-.54263l2.11962-.245a.32857.32857 0 01.07537.6528l-2.11962.24495A.32842.32842 0 01261.96818 106.61426zM255.54687 105.015a.32854.32854 0 01.37261-.52019l1.97143.8161a.32853.32853 0 01-.25127.60711l-1.97142-.8161A.32765.32765 0 01255.54687 105.015zM251.16276 100.42676a.32968.32968 0 01-.02506-.0325l-1.19731-1.76605a.32848.32848 0 11.5438-.3686l1.19731 1.76606a.3285.3285 0 01-.51874.40109zM250.55719 92.70921a.32832.32832 0 01-.07372-.288l.46407-2.0826a.32855.32855 0 01.64141.14274l-.46407 2.0826a.3286.3286 0 01-.56769.14527zM252.61957 85.83454a.32854.32854 0 01.00345-.43622l1.42857-1.58467a.32855.32855 0 01.48791.44013l-1.42857 1.58467a.32837.32837 0 01-.46387.02391A.30042.30042 0 01252.61957 85.83454zM260.14669 82.75011a.32854.32854 0 01.22009-.54369l2.12625-.17669a.3285.3285 0 11.05433.65474l-2.12624.17669A.3276.3276 0 01260.14669 82.75011zM271.98957 100.1108a.32852.32852 0 01-.03005-.39266l1.14492-1.80039a.32853.32853 0 11.55448.35253l-1.14492 1.80039a.32852.32852 0 01-.52443.04013zM267.98782 105.24319l-.0171-.02114a.32874.32874 0 01.06851-.45966l1.71454-1.2699a.32857.32857 0 01.391.52816l-1.71454 1.2699A.32867.32867 0 01267.98782 105.24319zM272.07374 87.98023l-.01855-.02313-.8-1.09638a.32855.32855 0 11.53079-.38734l.8 1.09638a.32854.32854 0 01-.51224.41047z"/><circle cx="223.683" cy="173.609" r="6.494" fill="#57c984"/><path fill="#4fba75" d="M218.69185,176.412a6.49319,6.49319,0,0,1,2.1536-8.64232c-.11469.05584-.22869.11432-.34137.17759a6.49361,6.49361,0,1,0,6.35838,11.32425c.11267-.06327.22194-.13018.32934-.199A6.49321,6.49321,0,0,1,218.69185,176.412Z"/><ellipse cx="220.534" cy="171.604" fill="#4fba75" rx=".738" ry=".554" transform="rotate(-50.807 220.534 171.604)"/><ellipse cx="224.38" cy="173.107" fill="#4fba75" rx=".853" ry=".646" transform="rotate(-29.313 224.38 173.107)"/><ellipse cx="227.894" cy="173.378" fill="#4fba75" rx=".838" ry=".683" transform="rotate(-9.007 227.894 173.378)"/><ellipse cx="225.309" cy="177.582" fill="#4fba75" rx=".683" ry=".868" transform="rotate(-59.313 225.309 177.582)"/><circle cx="220.454" cy="175.459" r=".517" fill="#4fba75"/><ellipse cx="224.04" cy="168.535" fill="#4fba75" rx=".72" ry=".96" transform="rotate(-74.313 224.04 168.535)"/><circle cx="222.642" cy="177.809" r=".425" fill="#4fba75"/><circle cx="226.601" cy="170.683" r=".425" fill="#4fba75"/><path fill="#57c984" d="M216.45931 168.34462a4.48767 4.48767 0 011.6645 1.90868l1.26648-1.517s-.78347.26565-2.45177-1.08418zM224.79183 164.79034a4.48757 4.48757 0 01-.909 2.36374l1.93312.41029s-.60114-.56836-.1879-2.67419zM218.15528 176.71326a6.5734 6.5734 0 01-.29636-.59667c-.08432.28662-.42275.96777-1.78121 1.831l.50361.675a4.40978 4.40978 0 012.23539-.94748A6.52306 6.52306 0 01218.15528 176.71326zM230.17673 173.57748a6.512 6.512 0 01-.19828 1.61741 4.57709 4.57709 0 012.29657-.02722l.0856-.83778A4.29264 4.29264 0 01230.17673 173.57748zM230.89714 178.64873a4.48767 4.48767 0 01-1.67969-1.89532l-1.25433 1.52707s.78133-.27191 2.46035 1.06456zM226.26377 182.12523a4.48758 4.48758 0 01-.13713-2.52879l-1.93187.41614s.781.27283 1.26508 2.36351zM231.77977 170.13518a4.48763 4.48763 0 01-2.49913.40986l.62266 1.87552s.18676-.80593 2.21281-1.51331zM228.14023 168.88469a5.92182 5.92182 0 011.00582-1.466l-.66962-.51072a3.77244 3.77244 0 01-1.32973 1.2071A6.45378 6.45378 0 01228.14023 168.88469zM220.61193 179.32955a6.21457 6.21457 0 01-.5037 1.57471l.79177.28692a3.55834 3.55834 0 01.78585-1.40418A6.51751 6.51751 0 01220.61193 179.32955zM217.32551 173.41246a6.50979 6.50979 0 01.125-1.14629 6.36209 6.36209 0 01-1.58585-.11639l-.08867.83745A3.55686 3.55686 0 01217.32551 173.41246zM220.75427 167.815a6.49756 6.49756 0 011.02406-.41346 2.5569 2.5569 0 01-.87844-1.28418l-.4761.23485A2.75169 2.75169 0 01220.75427 167.815z"/><path fill="#4fba75" d="M216.19675 168.68467a.23073.23073 0 01-.29937-.33725l.88436-1.20986a.2307.2307 0 11.37253.27223l-.88436 1.20986A.22829.22829 0 01216.19675 168.68467zM226.029 165.10047a.23028.23028 0 01-.136.02829l-1.491-.15113a.23079.23079 0 01.04643-.45923l1.491.15114a.23079.23079 0 01.08957.43093zM232.4904 175.7366a.23076.23076 0 01-.34258-.22271l.13877-1.4923a.23078.23078 0 11.45958.04278l-.13876 1.4923A.23067.23067 0 01232.4904 175.7366zM230.46085 179.91822a.23077.23077 0 01-.30353-.33147l.84655-1.2367a.23075.23075 0 01.38085.26066l-.84655 1.23671A.23006.23006 0 01230.46085 179.91822zM226.67212 182.26659l-.026.01251-1.38728.567a.23072.23072 0 11-.17454-.42715l1.38728-.567a.23074.23074 0 01.20051.41465zM221.28014 181.56456a.23057.23057 0 01-.20863.00894l-1.36412-.62071a.23078.23078 0 01.191-.42016l1.36412.62072a.2308.2308 0 01.01759.41121zM216.854 179.151a.23078.23078 0 01-.29932-.06558l-.88214-1.21146a.23077.23077 0 01.37319-.27157l.88215 1.21146a.23065.23065 0 01-.05078.32228zM215.82475 173.53074a.23077.23077 0 01-.34178-.23005l.18664-1.487a.23073.23073 0 11.45787.05752l-.18664 1.487A.23011.23011 0 01215.82475 173.53074zM229.47264 167.90664a.23078.23078 0 01-.27423-.03624l-1.07151-1.04777a.23076.23076 0 11.32264-.33l1.0715 1.04776a.23076.23076 0 01-.0484.36626zM232.42028 171.40067l-.017.00869a.2309.2309 0 01-.306-.11369l-.62437-1.3624a.23079.23079 0 01.41965-.1922l.62437 1.3624A.23086.23086 0 01232.42028 171.40067zM221.14755 166.09114l-.01859.0094-.86945.391a.23078.23078 0 11-.18931-.42094l.86945-.391a.23077.23077 0 01.2079.41153z"/><circle cx="307.358" cy="79.936" r="8.099" fill="#57c984"/><path fill="#4fba75" d="M302.65387,74.56527a8.09839,8.09839,0,0,1,11.10105.40474c-.09765-.12559-.19835-.24968-.30455-.37091a8.09891,8.09891,0,1,0-12.1841,10.67318c.1062.12123.216.23737.3276.35072A8.09842,8.09842,0,0,1,302.65387,74.56527Z"/><ellipse cx="308.995" cy="75.576" fill="#4fba75" rx=".691" ry=".921" transform="rotate(-62.712 308.995 75.576)"/><ellipse cx="308.15" cy="80.656" fill="#4fba75" rx=".806" ry="1.064" transform="rotate(-41.218 308.15 80.656)"/><ellipse cx="308.724" cy="85.015" fill="#4fba75" rx=".852" ry="1.045" transform="rotate(-20.912 308.724 85.015)"/><ellipse cx="302.928" cy="82.941" fill="#4fba75" rx="1.082" ry=".852" transform="rotate(-71.218 302.928 82.941)"/><circle cx="304.27" cy="76.471" r=".645" fill="#4fba75"/><ellipse cx="313.643" cy="79.065" fill="#4fba75" rx="1.197" ry=".898" transform="rotate(-86.218 313.643 79.065)"/><circle cx="301.965" cy="79.745" r=".53" fill="#4fba75"/><circle cx="311.68" cy="82.744" r=".53" fill="#4fba75"/><path fill="#57c984" d="M311.92479 69.76515a5.59706 5.59706 0 01-1.90108 2.52239l2.17717 1.15531s-.52577-.88779.69233-3.27105zM318.40619 79.01961a5.597 5.597 0 01-3.11856-.50121l-.00337 2.46472s.539-.87985 3.21522-.91733zM302.14815 73.988a8.19486 8.19486 0 01.65193-.5152c-.37148-.02915-1.28982-.26692-2.69283-1.70268l-.69414.78826a5.4998 5.4998 0 011.73141 2.48428A8.13567 8.13567 0 01302.14815 73.988zM309.06789 87.852a8.12177 8.12177 0 01-2.02489.17416 5.70851 5.70851 0 01.62408 2.7957l1.04444-.11108A5.35388 5.35388 0 01309.06789 87.852zM303.06434 90.03592a5.597 5.597 0 011.88088-2.53749l-2.18633-1.13789s.53285.88357-.66619 3.27647zM297.62959 85.27585a5.59707 5.59707 0 013.05083-.818l-1.00488-2.25057s-.132 1.02332-2.55892 2.152zM313.68125 88.92271a5.59706 5.59706 0 01-1.14316-2.94445l-2.12867 1.24242s1.0316.02056 2.41615 2.31113zM314.271 84.15935a7.38573 7.38573 0 012.04786.85032l.451-.9486a4.705 4.705 0 01-1.81524-1.31222A8.0497 8.0497 0 01314.271 84.15935zM299.58731 77.65914a7.7511 7.7511 0 01-2.05135-.20956l-.14645 1.04008a4.438 4.438 0 011.91583.59777A8.12932 8.12932 0 01299.58731 77.65914zM305.96292 72.12609a8.119 8.119 0 011.43107-.1424 7.93489 7.93489 0 01-.266-1.96529l-1.04482.10724A4.43608 4.43608 0 01305.96292 72.12609zM313.67616 74.8704a8.10373 8.10373 0 01.76806 1.14337 3.189 3.189 0 011.3412-1.40243l-.4091-.52061A3.432 3.432 0 01313.67616 74.8704z"/><path fill="#4fba75" d="M311.44225 69.53221a.28777.28777 0 01.33456-.45212l1.704.768a.28773.28773 0 11-.23638.52467l-1.704-.768A.28472.28472 0 01311.44225 69.53221zM318.346 80.60927a.28727.28727 0 01-.06951-.15869l-.19915-1.85845a.28784.28784 0 01.57238-.06148l.19915 1.85845a.28785.28785 0 01-.50287.22017zM307.02818 91.23109a.28781.28781 0 01.18366-.47538l1.85688-.21459a.28784.28784 0 01.066.57188l-1.85689.21459A.28768.28768 0 01307.02818 91.23109zM301.40282 89.8301a.28782.28782 0 01.32643-.45571l1.72705.71494a.2878.2878 0 01-.22012.53185l-1.727-.71494A.287.287 0 01301.40282 89.8301zM297.56214 85.81056a.291.291 0 01-.022-.02847L296.4913 84.235a.28776.28776 0 11.47639-.32291l1.04889 1.54714a.28778.28778 0 01-.45444.35138zM297.03164 79.04964a.28762.28762 0 01-.06458-.25231l.40655-1.82445a.28782.28782 0 01.5619.125l-.40655 1.82446a.28787.28787 0 01-.49732.12726zM298.83838 73.02712a.28782.28782 0 01.003-.38215l1.25149-1.38824a.28782.28782 0 01.42743.38557l-1.25149 1.38825a.28767.28767 0 01-.40637.02094A.26345.26345 0 01298.83838 73.02712zM305.43247 70.325a.28782.28782 0 01.19282-.4763l1.86268-.15478a.28778.28778 0 01.0476.57358l-1.86269.15478A.287.287 0 01305.43247 70.325zM315.80736 85.53377a.28782.28782 0 01-.02632-.344l1.003-1.57722a.28781.28781 0 11.48575.30883l-1.003 1.57722a.28782.28782 0 01-.45943.03516zM312.30165 90.03l-.015-.01852a.288.288 0 01.06-.40268l1.502-1.11249a.28784.28784 0 11.34253.46268l-1.502 1.11249A.28793.28793 0 01312.30165 90.03zM315.88111 74.90684l-.01626-.02026-.70087-.96048a.28782.28782 0 11.465-.33933l.70088.96048a.28781.28781 0 01-.44874.35959z"/><circle cx="262.994" cy="35.601" r="13.773" fill="#57c984"/><path fill="#4fba75" d="M254.994,26.46813a13.77189,13.77189,0,0,1,18.87813.68829c-.16608-.21358-.33732-.4246-.51791-.63076a13.77275,13.77275,0,1,0-20.71992,18.15048c.18059.20616.36726.40366.55709.59643A13.77193,13.77193,0,0,1,254.994,26.46813Z"/><ellipse cx="265.778" cy="28.187" fill="#4fba75" rx="1.175" ry="1.566" transform="rotate(-62.712 265.778 28.187)"/><ellipse cx="264.341" cy="36.826" fill="#4fba75" rx="1.37" ry="1.809" transform="rotate(-41.218 264.341 36.826)"/><ellipse cx="265.317" cy="44.239" fill="#4fba75" rx="1.449" ry="1.777" transform="rotate(-20.912 265.317 44.24)"/><ellipse cx="255.461" cy="40.712" fill="#4fba75" rx="1.84" ry="1.449" transform="rotate(-71.218 255.46 40.712)"/><circle cx="257.742" cy="29.709" r="1.096" fill="#4fba75"/><ellipse cx="273.682" cy="34.12" fill="#4fba75" rx="2.036" ry="1.527" transform="rotate(-86.218 273.682 34.12)"/><circle cx="253.822" cy="35.277" r=".901" fill="#4fba75"/><circle cx="270.344" cy="40.376" r=".901" fill="#4fba75"/><path fill="#57c984" d="M270.75987 18.30517s-.41416 1.8203-3.23292 4.28952l3.70243 1.96468s-.89412-1.50976 1.17736-5.56264zM281.78194 34.043s-1.80273.48494-5.30333-.85233l-.00572 4.19142s.91656-1.49625 5.46769-1.56zM254.134 25.48638a13.93746 13.93746 0 011.10865-.87612c-.63172-.04958-2.19343-.45393-4.57933-2.89554l-1.18045 1.34049s1.52722.939 2.94439 4.22469A13.83593 13.83593 0 01254.134 25.48638zM265.9015 49.06317a13.812 13.812 0 01-3.44346.29616 9.70764 9.70764 0 011.06129 4.75429l1.77615-.1889S264.82886 52.28235 265.9015 49.06317zM255.692 52.77706s.39962-1.82355 3.19858-4.31519l-3.718-1.93506s.90615 1.50257-1.1329 5.57187zM246.44988 44.68221s1.44677-1.17976 5.18814-1.391L249.92916 39.464s-.22452 1.74023-4.35163 3.65958zM273.74685 50.884s-1.32933-1.31067-1.944-5.00724l-3.61995 2.11282s1.75431.035 4.10882 3.93025zM274.7497 42.78353a12.55988 12.55988 0 013.48252 1.446l.767-1.61316a8.00122 8.00122 0 01-3.087-2.23152A13.68969 13.68969 0 01274.7497 42.78353zM249.77912 31.72946a13.18046 13.18046 0 01-3.48847-.35637l-.24905 1.76874a7.547 7.547 0 013.258 1.01655A13.82407 13.82407 0 01249.77912 31.72946zM260.62129 22.32013a13.80687 13.80687 0 012.43364-.24216 13.494 13.494 0 01-.45229-3.34212l-1.7768.18236A7.54394 7.54394 0 01260.62129 22.32013zM273.7382 26.987a13.77951 13.77951 0 011.30613 1.94439 5.423 5.423 0 012.2808-2.38493l-.6957-.88534A5.83637 5.83637 0 01273.7382 26.987z"/><path fill="#4fba75" d="M269.93928 17.90905a.48937.48937 0 01.56893-.76886l2.89782 1.306a.48931.48931 0 11-.402.89224l-2.89781-1.306A.48413.48413 0 01269.93928 17.90905zM281.67959 36.74637a.4885.4885 0 01-.11821-.26986l-.33867-3.16043a.48948.48948 0 01.97337-.10456l.33867 3.16043a.48951.48951 0 01-.85516.37442zM262.43284 54.80952a.48942.48942 0 01.31232-.80841l3.15776-.36492a.48949.48949 0 01.1123.97252l-3.15776.36492A.48928.48928 0 01262.43284 54.80952zM252.86652 52.427a.48946.48946 0 01.55512-.775l2.937 1.21581a.48943.48943 0 01-.37433.90445l-2.937-1.21581A.48818.48818 0 01252.86652 52.427zM246.33518 45.59153a.49371.49371 0 01-.03734-.04842l-1.78371-2.631a.48935.48935 0 11.81014-.54913l1.78371 2.631a.48938.48938 0 01-.7728.59754zM245.433 34.0941a.48906.48906 0 01-.10983-.42906l.69137-3.10261a.48947.48947 0 01.95556.21265l-.69137 3.10261a.48953.48953 0 01-.84573.21641zM248.5055 23.8524a.48946.48946 0 01.00513-.64988l2.12826-2.3608a.48946.48946 0 01.72688.65569l-2.12825 2.36081a.4892.4892 0 01-.69107.03561A.448.448 0 01248.5055 23.8524zM259.71922 19.25727a.48945.48945 0 01.3279-.81l3.16763-.26322a.48938.48938 0 11.08094.97541l-3.16763.26323A.488.488 0 01259.71922 19.25727zM277.36246 45.12082a.48942.48942 0 01-.04477-.585l1.70567-2.68218a.48944.48944 0 11.82606.52519L278.14375 45.061a.48943.48943 0 01-.78129.05979zM271.40075 52.76693c-.00882-.01007-.01727-.02067-.02547-.03149a.48974.48974 0 01.10206-.68479l2.55428-1.89187a.48949.48949 0 01.58251.78683l-2.55429 1.89187A.48964.48964 0 01271.40075 52.76693zM277.48786 27.049q-.01449-.01653-.02764-.03445l-1.19189-1.63336a.48946.48946 0 11.79076-.577l1.19189 1.63335a.48945.48945 0 01-.76312.61151z"/><circle cx="239.877" cy="226.188" r="13.773" fill="#57c984"/><path fill="#4fba75" d="M229.29045,232.13261a13.77189,13.77189,0,0,1,4.56773-18.33012c-.24325.11845-.48505.24247-.724.37666a13.77275,13.77275,0,1,0,13.48593,24.01842c.239-.13418.47074-.2761.69853-.42208A13.772,13.772,0,0,1,229.29045,232.13261Z"/><ellipse cx="233.197" cy="221.935" fill="#4fba75" rx="1.566" ry="1.175" transform="rotate(-50.807 233.197 221.935)"/><ellipse cx="241.354" cy="225.123" fill="#4fba75" rx="1.809" ry="1.37" transform="rotate(-29.314 241.35 225.123)"/><ellipse cx="248.809" cy="225.697" fill="#4fba75" rx="1.777" ry="1.449" transform="rotate(-9.007 248.815 225.702)"/><ellipse cx="243.325" cy="234.614" fill="#4fba75" rx="1.449" ry="1.84" transform="rotate(-59.313 243.325 234.614)"/><circle cx="233.028" cy="230.112" r="1.096" fill="#4fba75"/><ellipse cx="240.633" cy="215.425" fill="#4fba75" rx="1.527" ry="2.036" transform="rotate(-74.313 240.633 215.425)"/><circle cx="237.668" cy="235.096" r=".901" fill="#4fba75"/><circle cx="246.066" cy="219.982" r=".901" fill="#4fba75"/><path fill="#57c984" d="M224.55529 215.022s1.69572.78075 3.53036 4.04825l2.68618-3.21752s-1.66173.56345-5.20014-2.29951zM242.22834 207.48341s.10264 1.864-1.928 5.01344l4.1001.87022s-1.275-1.2055-.39853-5.6719zM228.15241 232.77161a13.93961 13.93961 0 01-.62858-1.26554c-.17883.60791-.89663 2.05262-3.7779 3.88354l1.06815 1.43158s1.23382-1.30068 4.74121-2.00958A13.83494 13.83494 0 01228.15241 232.77161zM253.64955 226.12069a13.81153 13.81153 0 01-.42053 3.43049 9.70769 9.70769 0 014.871-.05773l.18156-1.77691S256.57823 227.83433 253.64955 226.12069zM255.17753 236.87668s-1.70189-.76718-3.56257-4.01993l-2.66041 3.23887s1.65718-.5767 5.21834 2.25792zM245.35028 244.25024s-.856-1.659-.29085-5.3635l-4.09744.88261s1.65649.57868 2.6832 5.01295zM257.04955 218.81968s-1.5567 1.03037-5.30057.8693l1.32065 3.97793s.3961-1.70937 4.69329-3.20971zM249.33021 216.16742a12.55985 12.55985 0 012.13332-3.10933l-1.42026-1.08322a8.00125 8.00125 0 01-2.82031 2.56023A13.68871 13.68871 0 01249.33021 216.16742zM233.36288 238.32066a13.18084 13.18084 0 01-1.06832 3.33994l1.67932.60854a7.547 7.547 0 011.66676-2.97823A13.82317 13.82317 0 01233.36288 238.32066zM226.39248 225.7707a13.80649 13.80649 0 01.26506-2.43125 13.4939 13.4939 0 01-3.36353-.24686l-.18809 1.7762A7.54391 7.54391 0 01226.39248 225.7707zM233.66479 213.8986a13.78011 13.78011 0 012.172-.87694 5.423 5.423 0 01-1.86314-2.72372l-1.00981.49811A5.83635 5.83635 0 01233.66479 213.8986z"/><path fill="#4fba75" d="M223.99842 215.74319a.48937.48937 0 01-.635-.71531l1.8757-2.56608a.4893.4893 0 11.79012.57739l-1.8757 2.56608A.48408.48408 0 01223.99842 215.74319zM244.85242 208.1412a.48839.48839 0 01-.28844.06l-3.16232-.32055a.48948.48948 0 01.09848-.974l3.16231.32055a.4895.4895 0 01.19.914zM258.55679 230.70013a.48942.48942 0 01-.72659-.47237l.29431-3.16512a.48949.48949 0 11.97477.09074l-.29431 3.16511A.4893.4893 0 01258.55679 230.70013zM254.25218 239.56923a.48946.48946 0 01-.64379-.703l1.79551-2.623a.48943.48943 0 01.80778.55285l-1.79551 2.623A.48818.48818 0 01254.25218 239.56923zM246.21638 244.55005a.49317.49317 0 01-.05508.02654l-2.94238 1.20262a.48935.48935 0 11-.3702-.906l2.94239-1.20262a.48939.48939 0 01.42527.87945zM234.78014 243.06108a.48909.48909 0 01-.4425.01895l-2.89326-1.31651a.48947.48947 0 01.40519-.89114l2.89326 1.31651a.48953.48953 0 01.03731.87219zM225.3925 237.942a.48945.48945 0 01-.63483-.13909l-1.871-2.56947a.48946.48946 0 01.79154-.576l1.871 2.56947a.4892.4892 0 01-.10772.68355A.44735.44735 0 01225.3925 237.942zM223.20941 226.02155a.48944.48944 0 01-.72491-.48793l.39587-3.1538a.48938.48938 0 11.97113.122l-.39586 3.1538A.488.488 0 01223.20941 226.02155zM252.1562 214.093a.48943.48943 0 01-.58163-.07686l-2.27263-2.22228a.48943.48943 0 01.68429-.7l2.27264 2.22227a.48941.48941 0 01-.10267.77682zM258.40806 221.50375c-.01167.00655-.02379.01262-.03607.01842a.48974.48974 0 01-.649-.24112l-1.32428-2.88961a.48949.48949 0 01.89007-.40767l1.32427 2.88961A.48965.48965 0 01258.40806 221.50375zM234.49892 210.24237c-.01278.00718-.02588.0138-.03942.01994l-1.84409.82932a.48946.48946 0 11-.40152-.89279l1.84409-.82932a.48945.48945 0 01.44094.87285z"/><circle cx="312.893" cy="106.147" r="2.125" fill="#3ca05d"/><circle cx="209.416" cy="204.363" r="2.125" fill="#3ca05d"/><circle cx="254.706" cy="181.342" r="2.218" fill="#3ca05d"/><circle cx="226.749" cy="58.976" r="2.635" fill="#3ca05d"/><circle cx="285.048" cy="240.376" r="2.935" fill="#3ca05d"/><circle cx="278.354" cy="62.211" r="2.393" fill="#3ca05d"/><circle cx="255.466" cy="138.292" r="2.126" fill="#3ca05d"/><circle cx="285.048" cy="123.981" r="1.879" fill="#3ca05d"/><circle cx="301.107" cy="14.502" r="2.594" fill="#3ca05d"/><circle cx="97.683" cy="50.623" r="9.245" fill="#57c984"/><path fill="#4fba75" d="M100.43594,42.95178a9.24428,9.24428,0,0,1,5.74753,11.30282c.07122-.16706.13926-.33631.20139-.50947a9.24485,9.24485,0,1,0-17.40311-6.245c-.06214.17316-.11722.34706-.16849.52128A9.24431,9.24431,0,0,1,100.43594,42.95178Z"/><ellipse cx="102.941" cy="49.84" fill="#4fba75" rx=".788" ry="1.051" transform="rotate(-1.753 102.942 49.84)"/><ellipse cx="97.403" cy="51.812" fill="#4fba75" rx="1.214" ry=".92" transform="rotate(-70.26 97.403 51.812)"/><ellipse cx="93.371" cy="54.801" fill="#4fba75" rx="1.193" ry=".972" transform="rotate(-49.953 93.37 54.8)"/><ellipse cx="92.229" cy="47.867" fill="#4fba75" rx="1.235" ry=".972" transform="rotate(-10.26 92.229 47.867)"/><circle cx="99.429" cy="45.62" r=".736" fill="#4fba75"/><ellipse cx="102.035" cy="56.412" fill="#4fba75" rx="1.367" ry="1.025" transform="rotate(-25.26 102.035 56.412)"/><circle cx="94.885" cy="45.134" r=".605" fill="#4fba75"/><circle cx="97.276" cy="56.492" r=".605" fill="#4fba75"/><path fill="#57c984" d="M110.36364 49.544a6.38911 6.38911 0 01-3.57073-.49949l.05348 2.813s.59464-1.01666 3.648-1.12167zM104.7195 61.14043a6.389 6.389 0 01-1.22791-3.39L101.03 59.11288s1.17672.05033 2.69711 2.70038zM100.73184 42.12718a9.35872 9.35872 0 01.8754.36512c-.17675-.38687-.44834-1.43511.20706-3.63087L100.643 38.6055A6.278 6.278 0 0199.12318 41.71 9.287 9.287 0 01100.73184 42.12718zM90.73036 56.71539a9.27114 9.27114 0 01-1.29585-1.92427 6.51624 6.51624 0 01-2.44421 2.172l.68961.98077A6.11146 6.11146 0 0190.73036 56.71539zM85.22413 51.93419a6.38906 6.38906 0 013.5746.471l-.07593-2.81243s-.58651 1.02138-3.639 1.15076zM86.963 43.87276a6.38906 6.38906 0 012.50685 2.59138L91.159 44.2142s-1.09441.43529-3.56559-1.36126zM92.21825 61.9127a6.38905 6.38905 0 012.305-2.77245L92.1038 57.70436s.55113 1.04091-.96758 3.69192zM97.29873 59.86169a8.4309 8.4309 0 01.28618 2.51489L98.7815 62.301a5.37068 5.37068 0 01.30367-2.5387A9.19 9.19 0 0197.29873 59.86169zM95.64908 41.60586a8.84773 8.84773 0 01-.92759-2.16332l-1.11912.43019a5.06585 5.06585 0 01.46506 2.24319A9.279 9.279 0 0195.64908 41.60586zM104.70382 44.9025a9.2683 9.2683 0 01.93512 1.34925 9.05807 9.05807 0 011.81392-1.35445l-.686-.98328A5.06384 5.06384 0 01104.70382 44.9025zM106.23923 54.12079a9.24861 9.24861 0 01-.71545 1.40008 3.64011 3.64011 0 012.14279.56135l.29286-.69676A3.91767 3.91767 0 01106.23923 54.12079z"/><path fill="#4fba75" d="M110.32871 48.93336a.32849.32849 0 01.63659.08334l.17783 2.12614a.32844.32844 0 11-.65459.05484l-.17783-2.12614A.32517.32517 0 01110.32871 48.93336zM103.09971 61.96125a.3279.3279 0 01.11985-.15731l1.74432-1.22857a.32857.32857 0 01.37854.53715l-1.74433 1.22857a.32858.32858 0 01-.49838-.37984zM86.22788 56.55227a.32852.32852 0 01.57618-.08013l1.24311 1.7342a.32857.32857 0 01-.53413.3828l-1.24311-1.7342A.32844.32844 0 0186.22788 56.55227zM84.50884 50.162a.32854.32854 0 01.63567.07325L85.388 52.355a.32852.32852 0 01-.65275.075l-.24352-2.11972A.32777.32777 0 0184.50884 50.162zM86.392 44.10175a.33259.33259 0 01.01625-.03768L87.371 42.16a.32848.32848 0 11.58624.2965l-.96278 1.90408a.3285.3285 0 01-.60249-.25881zM92.84522 39.82589a.32833.32833 0 01.216-.20427l2.046-.60526a.32855.32855 0 01.18658.63006l-2.046.60526a.3286.3286 0 01-.40259-.42579zM99.85669 38.29169a.32854.32854 0 01.383-.20875l2.07892.47969a.32855.32855 0 01-.14793.64023l-2.07892-.47969a.32836.32836 0 01-.24608-.39394A.30076.30076 0 0199.85669 38.29169zM106.20731 43.37509a.32854.32854 0 01.58217-.07151l1.18665 1.77314a.3285.3285 0 01-.546.36534l-1.18664-1.77314A.32754.32754 0 01106.20731 43.37509zM96.77847 62.15658a.32853.32853 0 01.3287-.21689l2.12981.127a.32853.32853 0 11-.039.6559l-2.12981-.127a.32851.32851 0 01-.28967-.439zM90.34876 61.14947l.01018-.02521a.32875.32875 0 01.43512-.16325l1.94255.88251a.32857.32857 0 01-.27194.59823l-1.94255-.88251A.32866.32866 0 0190.34876 61.14947zM107.4247 56.34146l.01121-.02745.57015-1.23169a.32855.32855 0 01.59631.276L108.03222 56.59a.32854.32854 0 01-.60752-.24857z"/><circle cx="131.586" cy="83.284" r="8.099" fill="#57c984"/><path fill="#4fba75" d="M133.9979,76.56446a8.0984,8.0984,0,0,1,5.03509,9.90178c.0624-.14635.122-.29462.17643-.44632A8.0989,8.0989,0,1,0,123.96351,80.549c-.05443.1517-.10268.30405-.1476.45667A8.09843,8.09843,0,0,1,133.9979,76.56446Z"/><ellipse cx="136.193" cy="82.599" fill="#4fba75" rx=".691" ry=".921" transform="rotate(-1.753 136.193 82.6)"/><ellipse cx="131.341" cy="84.327" fill="#4fba75" rx="1.064" ry=".806" transform="rotate(-70.26 131.34 84.327)"/><ellipse cx="127.808" cy="86.945" fill="#4fba75" rx="1.045" ry=".852" transform="rotate(-49.953 127.808 86.945)"/><ellipse cx="126.808" cy="80.871" fill="#4fba75" rx="1.082" ry=".852" transform="rotate(-10.26 126.808 80.87)"/><circle cx="133.116" cy="78.902" r=".645" fill="#4fba75"/><ellipse cx="135.399" cy="88.356" fill="#4fba75" rx="1.197" ry=".898" transform="rotate(-25.26 135.399 88.356)"/><circle cx="129.135" cy="78.476" r=".53" fill="#4fba75"/><circle cx="131.229" cy="88.426" r=".53" fill="#4fba75"/><path fill="#57c984" d="M142.695 82.33954a5.5971 5.5971 0 01-3.12812-.43757l.04685 2.46427s.52094-.89065 3.19586-.98263zM137.75049 92.49854a5.59709 5.59709 0 01-1.0757-2.96976l-2.15645 1.19354s1.03086.04409 2.36279 2.36564zM134.25712 75.84208a8.19682 8.19682 0 01.76689.31986c-.15484-.33892-.39277-1.25722.18139-3.1808l-1.02612-.22422a5.49981 5.49981 0 01-1.33142 2.7197A8.13576 8.13576 0 01134.25712 75.84208zM125.49538 88.622a8.12154 8.12154 0 01-1.13523-1.68575 5.70834 5.70834 0 01-2.14124 1.90277l.60414.8592A5.35387 5.35387 0 01125.49538 88.622zM120.67167 84.43346a5.59708 5.59708 0 013.13152.41258l-.06653-2.46382s-.5138.89478-3.18791 1.00812zM122.195 77.37129a5.59708 5.59708 0 012.19612 2.27016l1.47978-1.97105s-.95875.38134-3.12361-1.19252zM126.79883 93.17508a5.59708 5.59708 0 012.0193-2.42879l-2.11956-1.2579s.48281.91188-.84764 3.23428zM131.24956 91.3783a7.38577 7.38577 0 01.25071 2.20316l1.04826-.0662a4.70517 4.70517 0 01.266-2.224A8.0495 8.0495 0 01131.24956 91.3783zM129.8044 75.38537a7.7504 7.7504 0 01-.81261-1.89516l-.98041.37687a4.43777 4.43777 0 01.40742 1.96513A8.12964 8.12964 0 01129.8044 75.38537zM137.73676 78.27338a8.11919 8.11919 0 01.8192 1.182 7.93529 7.93529 0 011.58908-1.18657l-.601-.86139A4.43608 4.43608 0 01137.73676 78.27338zM139.08185 86.349a8.10359 8.10359 0 01-.62677 1.22653 3.18891 3.18891 0 011.87717.49177l.25657-.61039A3.432 3.432 0 01139.08185 86.349z"/><path fill="#4fba75" d="M142.66441 81.80459a.28778.28778 0 01.55769.073l.15578 1.86259a.28773.28773 0 11-.57345.048l-.15578-1.86259A.28465.28465 0 01142.66441 81.80459zM136.33148 93.21761a.28727.28727 0 01.105-.1378l1.5281-1.07629a.28783.28783 0 01.33161.47056l-1.5281 1.07629a.28785.28785 0 01-.43661-.33276zM121.551 88.47911a.2878.2878 0 01.50476-.0702l1.089 1.51924a.28784.28784 0 11-.46792.33534l-1.089-1.51924A.28772.28772 0 01121.551 88.47911zM120.045 82.88093a.28782.28782 0 01.55688.06417l.21334 1.857a.2878.2878 0 01-.57184.06574l-.21334-1.857A.28713.28713 0 01120.045 82.88093zM121.69476 77.57189a.28947.28947 0 01.01424-.033l.84344-1.66807a.28776.28776 0 11.51356.25975l-.84343 1.66806a.28778.28778 0 01-.52781-.22673zM127.34809 73.826a.28761.28761 0 01.18923-.17894l1.79242-.53024a.28783.28783 0 01.16345.552l-1.79242.53023a.28786.28786 0 01-.35268-.373zM133.49045 72.482a.28782.28782 0 01.33556-.18288l1.82123.42023a.28782.28782 0 01-.1296.56087L133.69642 72.86a.28766.28766 0 01-.21558-.34511A.26339.26339 0 01133.49045 72.482zM139.05388 76.9353a.28781.28781 0 01.51-.06264l1.03955 1.55334a.28778.28778 0 11-.47836.32006l-1.03955-1.55335A.287.287 0 01139.05388 76.9353zM130.79379 93.38873a.2878.2878 0 01.288-.19l1.86581.11124a.28781.28781 0 01-.03419.5746l-1.86582-.11124a.2878.2878 0 01-.25376-.3846zM125.16108 92.50645l.00892-.02208a.288.288 0 01.38118-.143l1.70176.77311a.28784.28784 0 01-.23823.52408l-1.70176-.77311A.288.288 0 01125.16108 92.50645zM140.12037 88.29442l.00982-.02405.49947-1.079a.28782.28782 0 11.5224.2418l-.49948 1.079a.28781.28781 0 01-.53221-.21776z"/><circle cx="148.811" cy="22.976" r="13.773" fill="#57c984"/><path fill="#4fba75" d="M152.91148,11.54851A13.77189,13.77189,0,0,1,161.474,28.38718c.10611-.24888.20747-.501.3-.759a13.77276,13.77276,0,1,0-25.92675-9.30372c-.09257.258-.17462.517-.251.77659A13.77194,13.77194,0,0,1,152.91148,11.54851Z"/><ellipse cx="156.644" cy="21.811" fill="#4fba75" rx="1.175" ry="1.566" transform="rotate(-1.753 156.644 21.811)"/><ellipse cx="148.393" cy="24.749" fill="#4fba75" rx="1.809" ry="1.37" transform="rotate(-70.26 148.393 24.749)"/><ellipse cx="142.386" cy="29.201" fill="#4fba75" rx="1.777" ry="1.449" transform="rotate(-49.953 142.386 29.2)"/><ellipse cx="140.685" cy="18.871" fill="#4fba75" rx="1.84" ry="1.449" transform="rotate(-10.26 140.685 18.871)"/><circle cx="151.412" cy="15.524" r="1.096" fill="#4fba75"/><ellipse cx="155.294" cy="31.602" fill="#4fba75" rx="2.036" ry="1.527" transform="rotate(-25.26 155.294 31.602)"/><circle cx="144.642" cy="14.8" r=".901" fill="#4fba75"/><circle cx="148.203" cy="31.72" r=".901" fill="#4fba75"/><path fill="#57c984" d="M167.70154 21.36944s-1.79248.52157-5.31959-.74412l.07967 4.19066s.88588-1.5146 5.43478-1.671zM159.293 38.64553s-1.29909-1.34066-1.82929-5.05029l-3.6672 2.0297s1.75305.075 4.01809 4.02295zM153.35231 10.32005a13.93967 13.93967 0 011.30416.544c-.26333-.57636-.66794-2.138.30846-5.40918l-1.745-.38129s-.07954 1.791-2.26417 4.625A13.83431 13.83431 0 01153.35231 10.32005zM138.45235 32.05321a13.81184 13.81184 0 01-1.93053-2.86673 9.70781 9.70781 0 01-3.64133 3.23579l1.02737 1.46113S135.11721 32.67817 138.45235 32.05321zM130.2493 24.9303s1.78825-.53587 5.32536.70162l-.11313-4.18989s-.87376 1.52162-5.42126 1.71437zM132.8398 12.92057s1.73376.69216 3.73466 3.86058l2.51648-3.35192s-1.63042.6485-5.31193-2.028zM140.669 39.796s.50056-1.79845 3.434-4.13033l-3.60445-2.13915s.82105 1.55071-1.44148 5.50012zM148.23774 36.74049a12.5597 12.5597 0 01.42635 3.74662l1.78265-.11258a8.00121 8.00121 0 01.4524-3.7821A13.69005 13.69005 0 01148.23774 36.74049zM145.78014 9.54339a13.181 13.181 0 01-1.3819-3.22286l-1.66725.64089a7.54691 7.54691 0 01.69284 3.34185A13.82318 13.82318 0 01145.78014 9.54339zM159.26968 14.45464a13.8074 13.8074 0 011.39311 2.0101 13.49416 13.49416 0 012.70234-2.01784l-1.022-1.46486A7.54391 7.54391 0 01159.26968 14.45464zM161.5571 28.18784a13.78088 13.78088 0 01-1.06587 2.08581 5.42291 5.42291 0 013.19227.83628l.4363-1.038A5.83637 5.83637 0 01161.5571 28.18784z"/><path fill="#4fba75" d="M167.6495 20.45973a.48937.48937 0 01.94838.12416l.26492 3.16747a.48931.48931 0 11-.9752.08169l-.26491-3.16747A.4841.4841 0 01167.6495 20.45973zM156.87991 39.86837a.48837.48837 0 01.17855-.23435l2.59865-1.8303a.48948.48948 0 01.56393.80022l-2.59865 1.8303a.48951.48951 0 01-.74248-.56587zM131.74466 31.8102a.48942.48942 0 01.85838-.11938l1.852 2.58358a.48949.48949 0 01-.79573.57028l-1.852-2.58358A.48927.48927 0 01131.74466 31.8102zM129.18367 22.29012a.48946.48946 0 01.947.10911l.36279 3.15791a.48943.48943 0 01-.97245.11179l-.36279-3.1579A.48817.48817 0 01129.18367 22.29012zM131.98913 13.26172a.49461.49461 0 01.02421-.05614l1.43433-2.83666a.48935.48935 0 11.87336.4417l-1.43433 2.83666a.48939.48939 0 01-.89757-.38556zM141.603 6.89164a.48908.48908 0 01.3218-.30431l3.04813-.90171a.48947.48947 0 01.278.93864l-3.04813.90171a.48952.48952 0 01-.59976-.63433zM152.04853 4.606a.48945.48945 0 01.57065-.311l3.09713.71462a.48947.48947 0 01-.22039.9538l-3.09713-.71463a.48917.48917 0 01-.3666-.58688A.4483.4483 0 01152.04853 4.606zM161.50953 12.17914a.48945.48945 0 01.86731-.10652l1.76784 2.64158a.48939.48939 0 01-.81349.54427l-1.76783-2.64158A.488.488 0 01161.50953 12.17914zM147.46267 40.15937a.48944.48944 0 01.48969-.32312l3.173.18917a.48944.48944 0 01-.05815.97715l-3.17294-.18917a.48944.48944 0 01-.43155-.654zM137.88385 38.659c.00452-.0126.00969-.02513.01517-.03755a.48974.48974 0 01.64823-.2432l2.894 1.31473a.48949.48949 0 01-.40513.89123l-2.894-1.31473A.48964.48964 0 01137.88385 38.659zM163.32317 31.49613c.005-.01379.0105-.02737.01671-.04089l.84939-1.83493a.48946.48946 0 11.88837.41121l-.8494 1.83493a.48945.48945 0 01-.90507-.37032z"/><circle cx="111.358" cy="100.848" r="2.125" fill="#3ca05d"/><circle cx="110.78" cy="2.636" r="2.635" fill="#3ca05d"/><circle cx="133.473" cy="55.102" r="2.393" fill="#3ca05d"/><circle cx="82.249" cy="85.161" r="1.879" fill="#3ca05d"/><circle cx="186.774" cy="36.661" r="2.594" fill="#3ca05d"/><path fill="#3ca05d" d="M177.80743,413.3353a180.01765,180.01765,0,0,0,37.74569-18.0378c.81653-.51784,12.61319-8.15474,19.37387-20.04191,1.41378-2.48582,2.85575-5.594,2.00411-9.01884a10.81753,10.81753,0,0,0-8.3508-7.68277c-2.834-.46937-5.33331.58728-8.68483,2.00423-4.04718,1.71109-5.09568,3.21321-7.68265,3.00628-1.81156-.14487-4.20848-1.11419-5.01051-3.00628-1.567-3.69641,3.91614-8.64258,4.34236-9.019,3.49207-3.084,5.31451-2.00694,11.35708-5.01039a38.864,38.864,0,0,0,11.02307-8.3508c3.39614-3.42661,5.3204-5.42733,5.01051-8.01679-.30956-2.58618-2.7554-4.98955-5.34453-5.67854-3.51178-.93444-5.099,1.86751-9.01884,1.002-2.30551-.509-4.9797-2.19-5.34452-4.34235-.3654-2.15578,1.72321-3.97277,5.0105-7.01473,11.80165-10.92125,13.56021-14.04159,14.36337-15.69956,1.12755-2.3276,2.96562-6.12175,1.67021-10.35492-.95347-3.1158-3.57159-6.36141-7.01474-7.34874-7.08427-2.03141-16.67725,5.77957-20.37592,13.69532-3.09044,6.61389-5.01051,11.691-5.01051,11.69111a16.58317,16.58317,0,0,1-4.00834,6.34658c-.92526.88924-3.02734,2.90933-4.67648,2.33824-1.06243-.36788-1.23516-1.56815-2.33825-4.34235-1.64642-4.14075-2.46963-6.21112-4.00833-7.01473-2.33054-1.21715-5.95163.36981-8.01679,2.33824-3.25161,3.09927-3.29794,7.76579-3.3403,12.02512-.03874,3.89326.62126,3.90787,1.33608,11.02307a81.07017,81.07017,0,0,1,.334,12.02524c-.37649,7.82854-1.64778,8.93842-2.33824,9.35286-1.6855,1.0118-3.83606.23684-6.34658-.668a22.53894,22.53894,0,0,1-9.01884-6.34669c-3.43918-3.81432-2.89766-5.27-5.01051-6.6806a8.53531,8.53531,0,0,0-6.11235-1.0611,16.92422,16.92422,0,0,0-12.25844,8.47736,28.39729,28.39729,0,0,0-1.3371,2.60475c-5.12853,11.40726-1.14613,22.87512,1.00206,29.06075C149.68077,398.47855,171.5245,410.2127,177.80743,413.3353Z"/><path fill="#4fba75" d="M177.80743,413.3353s5.31916-64.41914,57.15393-131.90512l-.00247-.00272a11.63015,11.63015,0,0,1,5.31668,6.64353c1.28973,4.23107-.54744,8.026-1.67016,10.355-.80725,1.66088-2.5702,4.77851-14.36339,15.69951-3.29393,3.0434-5.38163,4.862-5.01048,7.01468.36187,2.15265,3.03412,3.83209,5.34451,4.34241,3.9156.8722,5.50226-1.93,9.01887-1.00209,2.58875.68662,5.029,3.09907,5.34452,5.67855.30619,2.58874-1.61449,4.59294-5.01049,8.01677a38.97472,38.97472,0,0,1-11.02306,8.3508c-6.04969,3.00629-7.86831,1.93-11.35709,5.01049-.42682.38042-5.91052,5.326-4.34242,9.01887.798,1.89285,3.19186,2.86711,5.01048,3.00629,2.57947.21341,3.628-1.28974,7.68274-3.00629,3.3496-1.41036,5.84557-2.46813,8.68484-2.0042a10.82654,10.82654,0,0,1,8.3508,7.68274c.84436,3.42383-.59383,6.53219-2.00419,9.01887-6.76415,11.886-18.55734,19.52233-19.37387,20.04194a179.739,179.739,0,0,1-37.74564,18.03773"/><path fill="#4fba75" d="M182.16138 389.65007a51.31128 51.31128 0 01-8.32556-4.44354 49.54 49.54 0 01-7.41675-5.89788 29.2451 29.2451 0 01-5.65442-7.63595A18.572 18.572 0 01159.219 367.164a15.962 15.962 0 01-.16895-4.72443 18.30746 18.30746 0 002.34961 8.90716 30.69111 30.69111 0 005.67139 7.30326 55.72338 55.72338 0 007.16577 5.97c1.26343.91644 2.56421 1.78432 3.89 2.61467C179.43933 388.08893 180.791 388.88105 182.16138 389.65007zM199.75647 339.68627a39.11143 39.11143 0 01-4.3103-5.21123 40.51259 40.51259 0 01-3.4585-5.84057 29.81136 29.81136 0 01-2.2749-6.41717 18.047 18.047 0 01-.24341-6.76495c.02784.56636.0481 1.12666.05689 1.68324a11.61187 11.61187 0 00.19262 1.6585l.10279.82455.18384.81269c.13671.53826.22143 1.08556.39965 1.61223a40.72317 40.72317 0 002.418 6.18854 65.174 65.174 0 003.2168 5.8528c.56982.96089 1.18286 1.89706 1.81079 2.82354C198.45423 337.85416 199.10535 338.76648 199.75647 339.68627z"/><path fill="#c0e2cc" d="M182.12757 389.29574c1.55273.24137 3.1051.453 4.66491.59152 1.55567.16557 3.11463.28614 4.67444.34554a55.72339 55.72339 0 009.32276-.27086 30.6906 30.6906 0 008.9707-2.24232 18.30866 18.30866 0 007.34839-5.55515 15.9567 15.9567 0 01-3.0503 3.61174 18.561 18.561 0 01-4 2.5919 29.24181 29.24181 0 01-9.16259 2.51454 49.53746 49.53746 0 01-9.47583.05908A51.31042 51.31042 0 01182.12757 389.29574zM199.14124 339.131c1.08008-.32144 2.15552-.63693 3.21411-1.00815 1.06616-.341 2.12646-.69876 3.168-1.1027a65.112 65.112 0 006.14429-2.61727 40.73718 40.73718 0 005.72363-3.37444c.46509-.30429.86987-.68248 1.30981-1.02132l.64624-.52581.59009-.585a11.60574 11.60574 0 001.17578-1.18558c.35059-.43242.7124-.86057 1.08423-1.28881a18.0423 18.0423 0 01-4.36914 5.1707 29.7942 29.7942 0 01-5.75195 3.6427 40.51418 40.51418 0 01-6.32691 2.4584A39.12948 39.12948 0 01199.14124 339.131z"/><path fill="#c0e2cc" d="M178.33338,408.99986c.65527-5.44942,1.70471-10.84517,2.85315-16.21457.64575-2.66818,1.22119-5.35592,1.962-8.00063.707-2.65366,1.3927-5.31428,2.2096-7.9371.78662-2.63155,1.53955-5.275,2.459-7.8644l1.31946-3.90367c.429-1.30521.88232-2.60169,1.37964-3.88228l2.8999-7.71475,3.16235-7.61119c1.02124-2.55191,2.26075-5.00754,3.39869-7.50752,1.17431-2.48349,2.27246-5.00364,3.57275-7.42531l3.76953-7.32829c1.262-2.43964,2.69287-4.78826,4.04419-7.17873,2.64844-4.81512,5.68335-9.39834,8.613-14.041,1.43628-2.34071,3.09741-4.53266,4.66845-6.78238l4.76368-6.71227c-6.1543,9.08543-12.16211,18.26825-17.42432,27.88784a301.4991,301.4991,0,0,0-14.55469,29.454l-3.19165,7.57211-2.93042,7.67728c-.50268,1.27455-.96118,2.565-1.39551,3.86415l-1.33544,3.88593c-.92017,2.58118-1.70948,5.20449-2.53858,7.81595-1.6604,5.2224-3.08337,10.51759-4.41235,15.835C180.33338,398.21323,179.1377,403.57131,178.33338,408.99986Z"/><path fill="#3ca05d" d="M76.41283,413.3353a218.65707,218.65707,0,0,1-45.84764-21.90954c-.9918-.629-15.32057-9.90512-23.5324-24.34382-1.71723-3.0194-3.46873-6.79479-2.43429-10.9547a13.13948,13.13948,0,0,1,10.14328-9.33184c3.44231-.57012,6.47808.71334,10.549,2.43442,4.9159,2.07838,6.18945,3.90292,9.33171,3.65157,2.2004-.176,5.1118-1.35334,6.086-3.65157C42.61183,344.74,35.95173,338.73215,35.434,338.275c-4.24163-3.74595-6.45524-2.43773-13.79484-6.08586A47.20608,47.20608,0,0,1,8.25007,322.04586c-4.12511-4.16211-6.4624-6.59227-6.086-9.73756.376-3.14129,3.34683-6.06053,6.49171-6.89741,4.26557-1.135,6.19343,2.26836,10.9547,1.21714,2.80037-.61827,6.04856-2.66005,6.4917-5.27443.44382-2.6185-2.0931-4.82551-6.086-8.52041C5.68137,279.56775,3.54535,275.77764,2.5698,273.76379c-1.36958-2.8272-3.60218-7.43576-2.02871-12.57756,1.15812-3.7846,4.33821-7.72687,8.52041-8.92612,8.60489-2.46745,20.257,7.02013,24.74954,16.635,3.75378,8.03353,6.086,14.20042,6.086,14.20055a20.14253,20.14253,0,0,0,4.86871,7.70885c1.12386,1.08012,3.67715,3.5338,5.68027,2.84014,1.29047-.44685,1.50028-1.90475,2.84014-5.27442,1.99982-5.02954,2.99973-7.54431,4.86871-8.52042,2.83078-1.4784,7.22912.44919,9.73756,2.84014,3.94956,3.76452,4.00582,9.43269,4.05728,14.60627.047,4.72893-.75461,4.74668-1.62286,13.38912a98.47068,98.47068,0,0,0-.40571,14.6064c.4573,9.50891,2.00147,10.857,2.84013,11.36042,2.04729,1.229,4.65946.28767,7.70885-.81143a27.37683,27.37683,0,0,0,10.9547-7.709c4.17739-4.633,3.51963-6.40117,6.086-8.11456,1.51109-1.00879,3.79709-1.7697,7.42434-1.28886a20.55691,20.55691,0,0,1,14.88966,10.297,34.49221,34.49221,0,0,1,1.62411,3.16385c6.22935,13.85579,1.39214,27.78517-1.21714,35.29853C110.57676,395.28961,84.04436,409.54244,76.41283,413.3353Z"/><path fill="#4fba75" d="M76.41283,413.3353s-6.4609-78.24644-69.42179-160.218l.003-.00331a14.12645,14.12645,0,0,0-6.45788,8.06954c-1.56658,5.13925.66494,9.74881,2.02865,12.57765.98052,2.01739,3.12187,5.80421,17.44643,19.06935,4.00095,3.69666,6.53677,5.90564,6.086,8.52035-.43954,2.61471-3.68539,4.65464-6.4917,5.2745-4.75606,1.05941-6.68328-2.34422-10.95473-1.21719-3.14441.834-6.1085,3.76428-6.49169,6.89742-.37192,3.14442,1.961,5.5788,6.086,9.73754a47.34057,47.34057,0,0,0,13.38912,10.14328c7.34824,3.65157,9.55721,2.34422,13.79485,6.086.51843.46208,7.17918,6.46915,5.2745,10.95473-.96925,2.29914-3.877,3.48252-6.086,3.65158-3.13315.25922-4.40669-1.56657-9.33181-3.65158-4.06858-1.71309-7.10029-2.9979-10.549-2.43438a13.15041,13.15041,0,0,0-10.14327,9.33181c-1.02559,4.15874.7213,7.93429,2.43439,10.95473,8.216,14.43725,22.5406,23.71271,23.53239,24.34385a218.31936,218.31936,0,0,0,45.84758,21.90946"/><path fill="#4fba75" d="M71.12427 384.56613c1.66455-.93408 3.3064-1.89623 4.90064-2.93388 1.61035-1.00857 3.1903-2.06274 4.725-3.1759a72.61409 72.61409 0 008.70361-7.25166 43.30892 43.30892 0 003.76917-4.195 31.9269 31.9269 0 003.11987-4.67566A22.23907 22.23907 0 0099.19641 351.515a19.38813 19.38813 0 01-.2052 5.73852A22.5551 22.5551 0 0197.11365 362.73a34.34013 34.34013 0 01-6.8678 9.27521 56.84333 56.84333 0 01-9.009 7.1636A62.32159 62.32159 0 0171.12427 384.56613zM49.75269 323.8778c1.60083-2.21761 3.07617-4.50541 4.50867-6.80728a76.27864 76.27864 0 003.91259-7.10547c.31995-.59566.56409-1.22405.84534-1.83673.27979-.61377.54761-1.23211.77332-1.86571.235-.62978.50158-1.25119.71179-1.88946l.60071-1.92652a29.77131 29.77131 0 001.1427-8.00445 21.88286 21.88286 0 01-.28968 8.21854 36.76036 36.76036 0 01-2.76941 7.79307 50.32228 50.32228 0 01-4.19519 7.09783A47.40756 47.40756 0 0149.75269 323.8778z"/><path fill="#c0e2cc" d="M71.16541 384.13575A62.3257 62.3257 0 0159.8783 386.135a56.85113 56.85113 0 01-11.50977-.07145A34.34011 34.34011 0 0137.23914 383.009a22.553 22.553 0 01-4.85864-3.14824 19.38558 19.38558 0 01-3.705-4.387 22.23853 22.23853 0 008.92566 6.74754 31.92388 31.92388 0 005.34119 1.75121 43.31214 43.31214 0 005.55517.9721 72.61934 72.61934 0 0011.32385.32931c1.89454-.07214 3.78821-.2186 5.67774-.4197C67.3938 384.686 69.2793 384.42892 71.16541 384.13575zM50.49988 323.20336a47.40407 47.40407 0 01-8.02881-1.7396 50.32359 50.32359 0 01-7.68274-2.99231 36.75733 36.75733 0 01-6.9906-4.41964 21.88085 21.88085 0 01-5.30285-6.28553 29.77137 29.77137 0 005.84155 5.59039l1.66211 1.14442c.55957.37218 1.153.69638 1.72668 1.04666.56885.35893 1.16138.6799 1.76038.98993.59949.30824 1.17956.65176 1.79907.9227a76.28427 76.28427 0 007.46521 3.17282C45.2981 321.55915 47.87134 322.4476 50.49988 323.20336z"/><path fill="#c0e2cc" d="M75.77405,408.06927c-.97693-6.59376-2.42932-13.10193-3.99927-19.57018-.84619-3.22017-1.58349-6.4671-2.53405-9.65858-.9065-3.20279-1.7865-6.41235-2.82544-9.57532-1.007-3.172-1.96582-6.3584-3.08338-9.49361l-1.62231-4.72-.811-2.3599-.88391-2.33368-3.55932-9.32518-3.87684-9.19742a366.14333,366.14333,0,0,0-17.67871-35.7762c-3.11718-5.88716-6.71447-11.49229-10.17163-17.18443-1.6643-2.88856-3.60327-5.59855-5.4342-8.38089l-5.5586-8.30853,5.78626,8.153c1.90832,2.73261,3.926,5.39505,5.67053,8.23818,3.55847,5.63922,7.24487,11.2062,10.46179,17.05487,1.64136,2.90358,3.3794,5.75632,4.91223,8.71962l4.57862,8.90127c1.57934,2.94148,2.91345,6.00256,4.3396,9.01912,1.38244,3.03661,2.88769,6.01932,4.12817,9.119l3.84131,9.24489L60.976,350.006l.87439,2.34469.80152,2.37091,1.60266,4.74158c1.11682,3.1452,2.03137,6.356,2.98694,9.55245.99219,3.1858,1.825,6.41751,2.68384,9.64076.89978,3.21239,1.59875,6.47705,2.38305,9.71794C73.70337,394.89623,74.978,401.45016,75.77405,408.06927Z"/><path fill="#2c386c" d="M114.89364,213.71386l2.32167,173.85636,11.71323.21744,18.60677-145.702,2.72806,146.09808,11.2949.20967s19.40091-140.70209,10.206-174.93733Z"/><path fill="#f6b98a" d="M150.85344,387.70645l-.24074,12.96823s15.30241,9.75721,19.00241,2.05539l-7.81559-4.27927a4.64493,4.64493,0,0,1-2.26949-5.22456l1.36333-5.33341Z"/><path fill="#2c386c" d="M150.6127,400.67468s-5.77559,6.7976-1.48019,12.10826l29.71335.55159a4.30519,4.30519,0,0,0,4.45879-4.39722c-.09885-1.77333-1.33122-3.705-5.34182-5.03483l-8.34772-1.17241Z"/><path fill="#f6b98a" d="M118.4703,387.59352s1.23118,12.57708-1.91794,13.14633a9.71267,9.71267,0,0,0,11.73265-.82839l-.61146-12.14709Z"/><path fill="#2c386c" d="M116.55236,400.73985s-7.02281,6.356-6.70544,11.802l22.38065.41547a19.61086,19.61086,0,0,0-3.94256-13.04589Z"/><path fill="#707fb7" d="M131.27588 219.61888c-.24133 1.13739-.55237 2.26114-.83069 3.4l-.5188-.18657C130.37476 221.76667 130.79053 220.686 131.27588 219.61888zM129.33741 226.34581c-.43128 1.089-.89307 2.16735-1.34791 3.24974l-.97546-.47062c.49561-1.04084.98425-2.08571 1.50354-3.11994z"/><polygon fill="#707fb7" points="126.386 232.733 124.476 235.718 123.564 235.075 125.383 232.16 126.386 232.733"/><path fill="#707fb7" d="M122.18079,238.43618a14.5926,14.5926,0,0,1-2.7992,2.22195l-.36181-.53969a16.76865,16.76865,0,0,0,2.46509-2.33533Z"/><polygon fill="#707fb7" points="116.048 241.877 115.203 241.935 116.013 241.718 116.048 241.877"/><path fill="#df7332" d="M172.72783,68.977c-3.28014,1.85809-7.5767,6.37979-10.50173,11.02514a49.652,49.652,0,0,0-3.53429,7.02914c-3.45627,7.81856-3.0948,9.86865-5.30756,14.77857a42.8326,42.8326,0,0,1-10.09225,13.6749c-6.15908,5.7861-8.75912,4.954-12.43118,9.67358-3.30819,4.25189-5.33817,10.24861-4.89676,15.10174,1.14809,12.62251,19.55694,23.47271,35.33687,23.55783,30.25535.16322,46.48972-39.271,47.38518-41.53234,3.44355-8.696,9.18341-23.191,2.05768-36.53817C202.96435,71.17578,182.70759,63.32382,172.72783,68.977Z"/><path fill="#f6b98a" d="M168.75443,108.22491,153.178,121.77652s12.64029,27.62794,32.41843,3.98631Z"/><path fill="#e8a77c" d="M168.75439,108.22491l-1.97981,1.72252c1.74309,9.10814,7.11066,16.09465,14.56887,17.57226a14.82729,14.82729,0,0,0,2.45908.26878q.88684-.94393,1.79394-2.02566Z"/><ellipse cx="164.917" cy="96.699" fill="#f6b98a" rx="3.771" ry="7.588" transform="rotate(-9.21 164.917 96.699)"/><path fill="#2c386c" d="M165.4563,101.02075q.24665,2.91381.36743,5.82251c.09766,1.93738.14514,3.88092.26636,5.8006a12.46455,12.46455,0,0,0,.134,1.38474l.02076.08377c.00561.01794-.00635-.01871-.04322-.06149a.24134.24134,0,0,0-.05432-.044.42478.42478,0,0,0-.21875-.07611c-.25134.03757-.21313.07193-.271.1015a.25359.25359,0,0,0-.04651.06079l-.002-.00018s.04578-.1405.0658-.2334c.048-.21829.08508-.45194.12476-.68646.15539-.94171.25341-1.908.38037-2.868.22644-1.92518.47619-3.85392.77527-5.78043.03894,1.94931.016,3.89587-.09778,5.84045-.04688.97431-.12891,1.94278-.24085,2.925-.02783.24631-.0686.49225-.11975.7493a1.87946,1.87946,0,0,1-.146.46152l-.02148.04086a.63909.63909,0,0,1-.07739.09418c-.079.05063-.05738.11734-.34314.14248-.29077-.04113-.28333-.12112-.343-.16558a.48828.48828,0,0,1-.08935-.13895,1.42866,1.42866,0,0,1-.08472-.26416,12.45162,12.45162,0,0,1-.17114-1.51065A86.72462,86.72462,0,0,1,165.4563,101.02075Z"/><path fill="#c67773" d="M183.58137,127.9921s15.054,3.19124,19.56349,50.37759c0,0,3.43121,25.825-26.33877,14.09489l-.64276-12.73285,12.249,1.81315-10.16251-44.77343Z"/><path fill="#8c3e56" d="M182.49843,129.77534l-4.24866,6.99612,7.48433,32.974a34.4887,34.4887,0,0,0,4.54456-16.00841,9.95872,9.95872,0,0,0-1.409-5.65839C186.26993,143.82821,183.348,129.26837,182.49843,129.77534Z"/><path fill="#c67773" d="M155.92749,115.02919s7.15619,28.37115,27.65388,12.96291c0,0,.87168,15.77555,3.62538,20.20563a10.08242,10.08242,0,0,1,1.37961,5.84589c-.31448,6.28547-2.39686,17.39543-12.49955,24.17229,0,0-7.35027,35.01973-1.65794,51.44885,0,0-24.56571,13.09358-60.36884-15.79658,0,0,29.72839-37.26061,18.168-67.57879C132.22806,146.28939,143.33048,111.33609,155.92749,115.02919Z"/><path fill="#8c3e56" d="M169.45368 177.26748s-.65642-5.1718-2.86117-7.92572a1.17522 1.17522 0 00-2.09424.69074 15.93293 15.93293 0 00.82657 5.72107s-8.21323-.76306-11.392-7.475a2.86252 2.86252 0 00-4.21654-1.21385c-2.09379 1.48572-4.14591 4.07681-2.48349 8.12858a10.58558 10.58558 0 007.96072 6.25874l11.23132 2.047 8.031 3.9869c.62413-4.06878 1.20661-7.13958 1.47505-8.498zM182.2541 156.94724c3.58928-4.54212-2.08022-10.55818-6.89559-7.34487-4.53671 3.0274-10.86481 3.66814-10.86481 3.66814a14.55877 14.55877 0 001.76143-4.47664 1.19977 1.19977 0 00-1.9367-1.12684c-3.16429 2.61034-5.49623 7.61206-5.49623 7.61206l-6.77593.27455-6.4656 8.3901 14.37467-2.23784c8.25875 5.05392 18.86584-1.57365 18.86584-1.57365A17.32608 17.32608 0 00182.2541 156.94724z"/><path fill="#8c3e56" d="M133.74238 172.6386a166.94756 166.94756 0 0019.83483-6.82843l-1.53094-10.25653-17.31754 1.92963A54.557 54.557 0 01133.74238 172.6386zM148.311 115.67754c.894 2.34435-14.0614 38.01933-14.0614 38.01933s.17535 1.22287.26179 1.87646C175.02145 123.64668 148.311 115.67754 148.311 115.67754z"/><path fill="#8c3e56" d="M153.78269 158.84305l-18.88893 2.02776a59.99772 59.99772 0 01-1.9938 15.469c11.05568-2.84314 22.74628-5.44144 22.74628-5.44144zM148.38653 117.17231c-.04084-.00871-.09607-.00247-.13936-.00868-9.10543 7.36615-16.01908 29.12573-16.01908 29.12573a40.22083 40.22083 0 012.25786 8.96719C173.86256 123.20811 148.38653 117.17231 148.38653 117.17231z"/><path fill="#f6b98a" d="M176.21341 180.72462l-6.67471-1.7729s-.65642-5.1718-2.86117-7.92572a1.17522 1.17522 0 00-2.09424.69074 15.93293 15.93293 0 00.82657 5.72107s-8.21323-.76306-11.392-7.475a2.86252 2.86252 0 00-4.21654-1.21385c-2.09379 1.48572-4.1459 4.07681-2.48348 8.12858a10.58555 10.58555 0 007.96071 6.25874l11.23132 2.047 10.18379 5.05563zM144.52771 159.14139l14.422-1.3359s2.33186-5.00174 5.49629-7.61211a1.19969 1.19969 0 011.93657 1.12685 14.55669 14.55669 0 01-1.76132 4.47665s6.328-.64072 10.86476-3.66812c4.81538-3.21335 10.48486 2.80272 6.89563 7.34485a17.32526 17.32526 0 01-3.433 3.185s-10.60713 6.62757-18.8659 1.57363l-14.37464 2.23787z"/><path fill="#c67773" d="M148.30148,115.48806s28.91565,6.84791-22.46374,44.69812l26.59675-2.96361,1.53088,10.25654s-52.953,22.73286-49.1246-1.77527S142.15659,114.17727,148.30148,115.48806Z"/><path fill="#e8a77c" d="M164.54773,94.01325a9.52764,9.52764,0,0,0,.03626,2.47287,4.153,4.153,0,0,0,.356,1.12054,7.17647,7.17647,0,0,0,.65357,1.07648,2.53229,2.53229,0,0,1-1.07263-.81583,2.86154,2.86154,0,0,1-.55872-1.26813A3.38773,3.38773,0,0,1,164.54773,94.01325Z"/><ellipse cx="188.426" cy="98.072" fill="#f6b98a" rx="28.216" ry="20.306" transform="rotate(-78.794 188.426 98.072)"/><path fill="#020202" d="M179.87146 90.62641a28.54824 28.54824 0 005.89331.97073 16.32967 16.32967 0 002.93933-.11154 19.21049 19.21049 0 002.93055-.64249 8.22819 8.22819 0 01-2.80567 1.28851 10.50854 10.50854 0 01-3.1018.30738 12.82872 12.82872 0 01-3.058-.5289A10.37265 10.37265 0 01179.87146 90.62641zM197.13294 93.121a34.27185 34.27185 0 004.10522 4.15033 25.77519 25.77519 0 002.29859 1.75895c.79126.56546 1.63671 1.04284 2.48437 1.58206a10.72279 10.72279 0 01-2.82226-1.01737 12.99748 12.99748 0 01-2.50562-1.681 13.63855 13.63855 0 01-2.07593-2.18631A10.093 10.093 0 01197.13294 93.121z"/><path fill="#e8a77c" d="M192.119,100.43985c.0564,1.343.12085,2.67746.26831,3.99784a16.77222,16.77222,0,0,0,.77124,3.85583,4.62166,4.62166,0,0,1,.28662,1.03247,2.37455,2.37455,0,0,1-.1709,1.12625,2.13442,2.13442,0,0,1-.71044.8953,2.54659,2.54659,0,0,1-1.02076.40387,4.26745,4.26745,0,0,1-2.085-.03366,3.59593,3.59593,0,0,1-1.68969-1.1297,3.80431,3.80431,0,0,0,3.65283.69241,2.644,2.644,0,0,0,.81714-.37232,1.57494,1.57494,0,0,0,.50341-.674,1.78559,1.78559,0,0,0,.1023-.84372,4.23442,4.23442,0,0,0-.28174-.88833,14.92258,14.92258,0,0,1-.658-4.02918A21.52492,21.52492,0,0,1,192.119,100.43985Z"/><ellipse cx="184.18" cy="97.703" fill="#020202" rx="2.732" ry="2.327" transform="rotate(-2.89 184.18 97.703)"/><ellipse cx="185.648" cy="116.696" fill="#a03041" rx="3.714" ry="3.164" transform="rotate(-2.89 185.648 116.696)"/><path fill="#cc546b" d="M182.63263,118.57694a3.8999,3.8999,0,0,0,3.175,1.279,4.13214,4.13214,0,0,0,2.122-.70332,3.39493,3.39493,0,0,0-4.329-1.451A2.7555,2.7555,0,0,0,182.63263,118.57694Z"/><ellipse cx="198.764" cy="102.501" fill="#020202" rx="2.327" ry="2.732" transform="rotate(-69.896 198.764 102.501)"/><path fill="#df7332" d="M180.13246,82.5658s5.29834,5.23683,6.26088,3.52931a21.75246,21.75246,0,0,1-.45093-5.05441s5.32587,6.25239,9.23213,8.10437c0,0-.101-4.15712,1.611-5.29214,0,0,7.17005,8.65029,11.15922,9.26982l2.09356-4.79924,2.16284,1.21921s8.72135-24.78508-17.35988-25.08665c0,0-5.94094-.332-13.72658-.70508a14.52776,14.52776,0,0,0-13.46912,7.23986C165.14246,75.51426,165.86159,80.73583,180.13246,82.5658Z"/><path fill="#ccb7aa" d="M194.59534 119.41236a57.89714 57.89714 0 016.25488 4.222 57.24284 57.24284 0 015.727 4.91477 57.24354 57.24354 0 01-6.25512-4.222A57.90243 57.90243 0 01194.59534 119.41236zM185.45117 122.887a74.08083 74.08083 0 011.817 8.34256 73.22552 73.22552 0 01.9574 8.48425 73.228 73.228 0 01-1.817-8.34253A74.11 74.11 0 01185.45117 122.887zM193.475 127.3002a69.132 69.132 0 014.31128 7.02692 68.27989 68.27989 0 013.54541 7.4426 68.28087 68.28087 0 01-4.311-7.02692A69.08875 69.08875 0 01193.475 127.3002z"/><path fill="#139da0" d="M450.41858,414.335H21.51038a1,1,0,1,1,0-2h428.9082a1,1,0,0,1,0,2Z"/><polygon fill="#76d3d6" points="257.015 165.296 245.103 159.713 247.967 150.64 256.893 157.564 257.015 165.296"/><path fill="#f4f187" d="M234.16235,115.494l26.49512,8.90928a2.20249,2.20249,0,0,1,1.33287,2.86747l-16.28827,43.94483-5.64266-2.09146a2.805,2.805,0,0,1-1.62239-3.6423c2.72506-7.09438,8.32333-26.93633-8.27135-39.204Z"/><path fill="#e82a53" d="M237.26484,116.53808l-4.4339,11.96242a28.42406,28.42406,0,0,0-2.66527-2.22263l4.00057-10.79331Z"/><rect width="19.891" height="6.546" x="237.765" y="124.807" fill="#5db8ba" transform="rotate(20.337 247.71 128.08)"/><ellipse cx="242.945" cy="133.688" fill="#5db8ba" rx="1.369" ry="1.341" transform="rotate(-69.663 242.945 133.688)"/><ellipse cx="246.565" cy="135.03" fill="#5db8ba" rx="1.369" ry="1.341" transform="rotate(-69.663 246.565 135.03)"/><ellipse cx="250.246" cy="136.394" fill="#5db8ba" rx="1.369" ry="1.341" transform="rotate(-69.662 250.247 136.394)"/><path fill="#63daea" d="M396.53727,235.72871l12.09842,158.448s-8.04272,10.59284-23.932,2.74629l-17.949-151.83079-5.59067.5885-7.35614,150.35955s-11.86791,6.76766-22.2646-.29424l1.1116-159.57926,63.827-.489A.05509.05509,0,0,1,396.53727,235.72871Z"/><path fill="#26b5bf" d="M332.6549,238.61884q.13761-1.22715.25916-2.454l63.34945-.4853q.15393,1.4613.32567,2.923l-21.359,4.29667a76.50353,76.50353,0,0,1-18.87012,1.42672C333.7147,243.20271,332.6549,238.61884,332.6549,238.61884Z"/><path fill="#63daea" d="M331.58136 120.97282l17.35512-5.83911 13.85 10.38119 16.37781-10.38119 18.49361 6.07845a16.3979 16.3979 0 016.52817 4.037c3.51648 3.54485 9.71657 10.96071 19.2814 26.1671l-14.62927 12.06727-9.4956-11.50834s-7.77065 42.23368-2.77287 84.1792l-21.33956 4.29277a76.3967 76.3967 0 01-18.81785 1.42932c-22.696-1.11875-23.75746-5.70968-23.75746-5.70968 4.70794-41.979-3.3348-84.15429-3.3348-84.15429l-9.41583 11.57369-14.71228-11.966c8.78572-14.18421 14.71549-21.62836 18.31329-25.47631A19.58388 19.58388 0 01331.58136 120.97282zM339.913 63.24839a25.30521 25.30521 0 1150.61026 0c0 14.46316-11.32949 26.18787-25.30513 26.18787S339.913 77.71155 339.913 63.24839z"/><path fill="#874106" d="M342.85543 64.71962l-2.86178.61434.10693 1.91311a12.04339 12.04339 0 00.85705 3.83664l1.07765 2.66923s.59856.10021.84922-2.4426A52.05454 52.05454 0 00342.85543 64.71962zM386.7961 69.42758c2.50937 5.14585-2.81762 12.93571-5.2964 12.55447-2.30922-.3552-2.71126-7.88874-2.74628-8.63126-.11769-2.49564-.31679-6.71828 1.76545-7.65037C382.38689 64.86421 385.56853 66.91028 386.7961 69.42758z"/><path fill="#f6b98a" d="M379.73422 66.4851s3.96224 7.76871 5.88492 8.435c0 0 7.45422 7.65039-2.94246 9.02354 0 0-.58849 20.0087-12.55448 22.95116v4.86762a2.32445 2.32445 0 001.97546 2.29811l7.06667 1.07315s-16.104 24.32431-30.22782 0l4.61327-1.00915a2.32446 2.32446 0 001.81818-2.06032l.43428-4.77708s-14.71229-5.29642-13.143-22.755c0 0-8.89835-4.68838-.624-10.77923 0 0 .694.55583.862-3.50617.05405-1.30692.05364-3.09186-.04186-5.52715C342.85543 64.71962 371.36994 52.104 379.73422 66.4851zM409.212 163.00933l7.40518 8.04272-20.09936 27.63661s3.47117 7.5088 4.03585 10.19517a.58406.58406 0 00.87839.37891c2.87088-1.762 12.99188-8.99451 30.19165-31.93023 0 0 7.57334-8.35533-8.8659-25.34044z"/><path fill="#9ce9ef" d="M401.02744 209.36c-4.95314 8.34-10.93423-.45049-10.93423-.45049l-2.52111.85437a10.74346 10.74346 0 01-10.19687-1.64237q-.28659-.23193-.55827-.4849c-3.33491-3.10744-1.60393-5.73538.64961-7.479a12.64173 12.64173 0 016.76-2.52856c11.46419-.89781 12.48719 1.27607 12.48719 1.27607h0a21.32007 21.32007 0 013.96552 8.82483zM353.80791 396.04029V408.889H303.00148a5.78126 5.78126 0 013.72711-6.42436l8.66993.83365a11.6223 11.6223 0 007.50454-1.86234l8.64025-5.68992zM384.66871 396.04029V408.889h50.80642a5.78126 5.78126 0 00-3.72711-6.42436l-7.59378.73017a11.6223 11.6223 0 01-8.97292-3.008l-6.54563-6.0101z"/><rect width="50.806" height="3.923" x="384.669" y="408.889" fill="#874106"/><rect width="50.806" height="3.923" x="302.968" y="408.889" fill="#874106"/><path fill="#9ce9ef" d="M380.02847,83.94368v12.829s-4.60985,15.90894-24.22623,10.51444c0,0-13.51051-3.328-13.19977-22.01272C342.60247,85.27445,356.34169,83.35518,380.02847,83.94368Z"/><path fill="#63daea" d="M380.02845,83.94367a10.65725,10.65725,0,0,1,2.12548-4.91318,8.97686,8.97686,0,0,1,2.00537-1.85919,6.02027,6.02027,0,0,1,2.54371-.92053,11.91355,11.91355,0,0,0-2.16309,1.43237,14.69214,14.69214,0,0,0-1.74341,1.85165,23.60672,23.60672,0,0,0-1.45776,2.12271C380.89441,82.40042,380.44641,83.15326,380.02845,83.94367Z"/><path fill="#020202" d="M372.52527 73.75293c-1.19409-.126-2.3-.28274-3.41235-.321a12.27736 12.27736 0 00-3.35547.321 3.923 3.923 0 011.57007-.908 5.70021 5.70021 0 011.81494-.22931A6.13255 6.13255 0 01372.52527 73.75293zM352.36927 73.75293c-1.314-.09613-2.54932-.22976-3.7771-.197a11.02521 11.02521 0 00-1.81031.194 8.556 8.556 0 00-1.76855.63074 3.76671 3.76671 0 011.57348-1.238 5.85555 5.85555 0 011.98462-.40338A6.96584 6.96584 0 01352.36927 73.75293z"/><ellipse cx="369.583" cy="80.192" fill="#020202" rx="1.177" ry="2.428"/><ellipse cx="349.868" cy="80.192" fill="#020202" rx="1.177" ry="2.428"/><path fill="#26b5bf" d="M370.11857,109.23534c9.51394,2.01885,16.42872,6.80035,20.22122,14.19736,9.66924,18.83989-2.84438,47.88849-3.38383,49.11451l-1.49575-.65388c.13078-.29425,12.74248-29.57169,3.4247-47.71685-3.53912-6.89842-9.84906-11.36932-18.76634-13.30644Z"/><circle cx="384.96" cy="174.286" r="6.385" fill="#9ce9ef"/><circle cx="384.96" cy="174.286" r="3.286" fill="#26b5bf"/><path fill="#26b5bf" d="M355.65149,109.24351c-.67023.17165-14.5243,3.7925-14.982,15.12914l1.62652.06539c.38416-9.35048,11.36116-12.97951,13.23289-13.52713Z"/><path fill="#26b5bf" d="M328.02991,164.67578a5.49893,5.49893,0,0,1-1.47852-.2041l.4375-1.57519c2.57715.71582,5.15918-1.36914,7.41309-4.37793a54.04105,54.04105,0,0,1-2.70019-10.437c-.0879-.74415-1.92872-17.22266,4.16894-22.54444a7.21227,7.21227,0,0,1,6.84668-1.35888,2.61383,2.61383,0,0,1,1.85645,1.10546c2.16015,2.81934,1.38183,10.03272-2.31446,21.439a55.81326,55.81326,0,0,1-5.99414,12.001c1.09278,2.46435,2.11914,3.49365,2.81836,3.91943a1.419,1.419,0,0,0,1.083.27588l.60547,1.51758a2.788,2.788,0,0,1-2.3584-.293A8.69833,8.69833,0,0,1,335.15,160.207C333.07483,162.77393,330.652,164.6753,328.02991,164.67578Zm12.35059-39.17041a5.03259,5.03259,0,0,0-3.43457,1.26368c-5.457,4.76171-3.64551,20.91552-3.627,21.07812a56.39229,56.39229,0,0,0,2.21875,9.03711,54.21021,54.21021,0,0,0,5.17285-10.68262c4.78223-14.76074,3.3877-18.85107,2.56543-19.92383a1.13853,1.13853,0,0,0-.63769-.4707h0l-.124.00635-.12012-.03125A8.10185,8.10185,0,0,0,340.3805,125.50537Z"/><circle cx="342.181" cy="164.31" r="1.802" fill="#9ce9ef"/><circle cx="325.337" cy="163.196" r="1.802" fill="#9ce9ef"/><path fill="#26b5bf" d="M372.52527 88.67084a32.85139 32.85139 0 01-5.70166 2.01776 31.18612 31.18612 0 01-5.99121 1.008 20.709 20.709 0 01-6.08667-.38709 12.40689 12.40689 0 01-5.43677-2.63867 15.24987 15.24987 0 005.5564 2.02145 25.64217 25.64217 0 005.91138.18933 45.49833 45.49833 0 005.90747-.80316c.98144-.18145 1.95654-.40405 2.927-.64721C370.58924 89.21079 371.55554 88.94446 372.52527 88.67084zM372.921 93.41483a32.84883 32.84883 0 01-5.70141 2.01776 31.19171 31.19171 0 01-5.99121 1.008 20.70983 20.70983 0 01-6.08692-.38708 12.40694 12.40694 0 01-5.43677-2.63867 15.25006 15.25006 0 005.5564 2.02145 25.646 25.646 0 005.91162.18933 45.50959 45.50959 0 005.90747-.80316c.9812-.18146 1.9563-.404 2.927-.64722C370.985 93.95478 371.95154 93.68842 372.921 93.41483zM372.921 98.9531a32.84883 32.84883 0 01-5.70141 2.01776 31.19171 31.19171 0 01-5.99121 1.008 20.70983 20.70983 0 01-6.08692-.38708 12.40694 12.40694 0 01-5.43677-2.63867 15.25006 15.25006 0 005.5564 2.02145 25.646 25.646 0 005.91162.18933 45.51477 45.51477 0 005.90747-.80316c.9812-.18146 1.9563-.404 2.927-.64722C370.985 99.493 371.95154 99.22669 372.921 98.9531z"/><path fill="#f6b98a" d="M261.05364,155.39944l29.32021,14.2293,15.5705-17.39319,13.96033,11.353-23.76034,21.89678a5.82253,5.82253,0,0,1-7.11094.59667L253.74026,163.1962Z"/><path fill="#9ce9ef" d="M257.57387,165.6821c-7.684-.52278-7.98834-7.3647-7.98834-7.3647l-2.44487-1.05288a10.7435,10.7435,0,0,1-6.476-8.04582q-.05765-.36414-.09015-.73394c-.39745-4.54091,2.64763-5.33453,5.48895-5.12136a12.64171,12.64171,0,0,1,6.71466,2.64656c9.11785,7.007,8.42268,9.3068,8.42268,9.3068h0a21.32013,21.32013,0,0,1-2.96122,9.21054Z"/><path fill="#e82a53" d="M225.97888,130.717a18.99039,18.99039,0,0,1-2.02807-7.38858,13.82672,13.82672,0,0,1,1.55249-7.61105,13.12577,13.12577,0,0,1,5.65259-5.32721,21.31626,21.31626,0,0,1,3.593-1.42889l1.87085-.4412q.94556-.165,1.89161-.29513a28.726,28.726,0,0,0-6.97364,2.84787,15.22837,15.22837,0,0,0-2.93139,2.24,11.37824,11.37824,0,0,0-2.21241,2.89438,14.53311,14.53311,0,0,0-1.66479,7.09451,20.97374,20.97374,0,0,0,.343,3.73291A24.48934,24.48934,0,0,0,225.97888,130.717Z"/><path fill="#e82a53" d="M218.83826 130.89078a23.93813 23.93813 0 01-2.56714-9.32532 17.5579 17.5579 0 011.967-9.60666 16.65807 16.65807 0 017.13086-6.73007 26.63056 26.63056 0 019.28711-2.72662 36.34739 36.34739 0 00-8.79809 3.60071 18.69321 18.69321 0 00-3.70362 2.8211 14.36176 14.36176 0 00-2.79248 3.65317 18.212 18.212 0 00-2.09375 8.95419A31.216 31.216 0 00218.83826 130.89078zM239.36756 126.25824c.77465.13892 1.52929.33158 2.28442.52307a.30032.30032 0 11-.14746.58225.31769.31769 0 01-.05884-.02167C240.74671 126.99777 240.04724 126.65488 239.36756 126.25824zM243.893 127.42288q1.11182.34347 2.21167.7204a.55966.55966 0 01-.36084 1.05957l-.02588-.00952q-1.08069-.42855-2.15064-.88629a.47178.47178 0 01.32569-.88416zM248.2909 128.93338c.72412.27561 1.44873.55023 2.16284.85294a.52142.52142 0 01-.36011.97742c-.73975-.23288-1.46948-.49381-2.19946-.75379a.57368.57368 0 01.385-1.08084zM252.59119 130.70859c.70508.32748 1.4082.66049 2.10059 1.02246a.162.162 0 01-.11109.30142c-.76172-.17361-1.51294-.37619-2.262-.58429a.39541.39541 0 11.21167-.762A.4277.4277 0 01252.59119 130.70859z"/><polygon fill="#26b5bf" points="382.057 240.828 382.245 242.562 382.194 242.567 382.057 240.828"/><polygon fill="#26b5bf" points="382.625 246.061 383.005 249.56 382.749 249.584 382.472 246.075 382.625 246.061"/><polygon fill="#26b5bf" points="383.384 253.059 383.764 256.558 383.304 256.601 383.027 253.092 383.384 253.059"/><polygon fill="#26b5bf" points="384.144 260.057 384.505 263.557 383.878 263.616 383.582 260.109 384.144 260.057"/><polygon fill="#26b5bf" points="384.863 267.058 385.22 270.559 384.478 270.629 384.178 267.123 384.863 267.058"/><polygon fill="#26b5bf" points="385.578 274.061 385.935 277.562 385.078 277.642 384.778 274.136 385.578 274.061"/><polygon fill="#26b5bf" points="386.293 281.063 386.65 284.564 385.678 284.655 385.378 281.149 386.293 281.063"/><polygon fill="#26b5bf" points="386.99 288.067 387.328 291.569 386.315 291.664 385.996 288.16 386.99 288.067"/><polygon fill="#26b5bf" points="387.666 295.072 388.005 298.575 386.954 298.674 386.634 295.169 387.666 295.072"/><polygon fill="#26b5bf" points="388.343 302.078 388.681 305.581 387.592 305.683 387.273 302.178 388.343 302.078"/><polygon fill="#26b5bf" points="389.019 309.084 389.358 312.587 388.231 312.692 387.911 309.188 389.019 309.084"/><rect width="1.153" height="3.519" x="388.711" y="316.136" fill="#26b5bf" transform="rotate(-5.383 389.3 317.918)"/><polygon fill="#26b5bf" points="390.345 323.098 390.664 326.602 389.554 326.707 389.215 323.204 390.345 323.098"/><polygon fill="#26b5bf" points="390.984 330.107 391.303 333.612 390.23 333.712 389.892 330.21 390.984 330.107"/><polygon fill="#26b5bf" points="391.622 337.116 391.941 340.621 390.907 340.718 390.569 337.215 391.622 337.116"/><polygon fill="#26b5bf" points="392.26 344.126 392.579 347.63 391.584 347.724 391.245 344.221 392.26 344.126"/><polygon fill="#26b5bf" points="392.898 351.135 393.198 354.642 392.279 354.728 391.922 351.227 392.898 351.135"/><polygon fill="#26b5bf" points="393.498 358.148 393.798 361.655 392.995 361.73 392.637 358.229 393.498 358.148"/><polygon fill="#26b5bf" points="394.098 365.161 394.397 368.668 393.71 368.732 393.352 365.231 394.098 365.161"/><polygon fill="#26b5bf" points="394.697 372.174 394.994 375.681 394.428 375.734 394.068 372.233 394.697 372.174"/><polygon fill="#26b5bf" points="395.271 379.189 395.549 382.698 395.189 382.732 394.808 379.233 395.271 379.189"/><polygon fill="#26b5bf" points="395.826 386.207 396.103 389.715 395.949 389.73 395.569 386.231 395.826 386.207"/><polygon fill="#26b5bf" points="396.38 393.224 396.518 394.962 396.329 393.228 396.38 393.224"/></g></g></svg>