<svg xmlns="http://www.w3.org/2000/svg" width="32" height="32" viewBox="0 0 32 32"><g transform="translate(268.996 -1615.32)"><path fill="#70b6fe" style="isolation:auto;mix-blend-mode:normal" d="m -241.50001,1625.3169 c 0,1.108 -0.80717,2 -1.80981,2 l -3.19019,0 0,-4 3.19019,0 c 1.00264,0 1.80981,0.892 1.80981,2 z" color="#000" overflow="visible"/><path fill="#c4def9" fill-rule="evenodd" d="m -247.24415,1633.6369 7.02027,-3.2557 c 0,0 1.12616,-0.3808 1.61756,0.7816 0.26268,0.6212 0.0147,1.337 -0.57971,1.6732 l -0.23689,0.134 -9.71223,5.2791 c -0.80446,0.5406 -1.94473,0.6967 -2.88908,0.4572 l -9.98838,-3.3826 -0.2872,-7.414 5.47061,0 c 1.28806,0 2.45058,0.508 3.29107,1.3315 0.21012,0.2058 0.40014,0.4314 0.56692,0.6737 0.0834,0.1212 0.161,0.2465 0.23242,0.3756 0.0714,0.1292 0.13666,0.2341 0.19533,0.3704 l 0.10937,2e-4 4.63098,0 c 0.86346,0 1.55858,0.6852 1.55858,1.5364 0,0.8512 -0.69512,1.5364 -1.55858,1.5364 l -6.95435,0"/><rect width="5.471" height="10.184" x="-267.497" y="1626.57" fill="#70b6fe" rx="8.206" ry="0"/><path fill="none" stroke="#0572e4" stroke-linecap="round" stroke-linejoin="round" d="m -247.24415,1633.6369 7.02027,-3.2557 c 0,0 1.12616,-0.3808 1.61756,0.7816 0.26268,0.6212 0.0147,1.337 -0.57971,1.6732 l -0.23689,0.134 -9.71223,5.2791 c -0.80446,0.5406 -1.94473,0.6967 -2.88908,0.4572 l -9.98838,-3.3826"/><path fill="#c4def9" d="m -246.50001,1627.3169 -3.19019,0 c -1.00263,0 -1.80981,-0.892 -1.80981,-2 0,-1.108 0.80718,-2 1.80981,-2 l 3.19019,0 z" color="#000" overflow="visible" style="isolation:auto;mix-blend-mode:normal"/><path fill="#0572e4" d="m -249.68945,1622.8176 c -1.29919,0 -2.31055,1.1492 -2.31055,2.5 0,1.3508 1.01136,2.5 2.31055,2.5 l 6.3789,0 c 1.29919,0 2.31055,-1.1492 2.31055,-2.5 0,-1.3508 -1.01136,-2.5 -2.31055,-2.5 z m 0,1 2.68945,0 0,3 -2.68945,0 c -0.70608,0 -1.31055,-0.6348 -1.31055,-1.5 0,-0.8652 0.60447,-1.5 1.31055,-1.5 z m 3.68945,0 2.68945,0 c 0.70609,0 1.31055,0.6348 1.31055,1.5 0,0.8652 -0.60446,1.5 -1.31055,1.5 l -2.68945,0 z m -21.49609,2.2539 c -0.27613,0 -0.49997,0.2239 -0.5,0.5 l 0,10.2479 c 3e-5,0.2762 0.22387,0.5 0.5,0.5 l 2.73437,0 2.73633,0 c 0.27613,0 0.49997,-0.2238 0.5,-0.5 l 0,-8.4081 4.69531,0 c 1.1566,0 2.19212,0.4534 2.94141,1.1875 0.18728,0.1835 0.35746,0.3841 0.50586,0.5996 0.0743,0.108 0.14353,0.2212 0.20703,0.336 0.0778,0.1406 0.13176,0.2265 0.17383,0.3242 l 0.1289,0.3027 0.43946,0 4.63086,0 c 0.59894,0 1.05859,0.4582 1.05859,1.0371 0,0.579 -0.45965,1.0372 -1.05859,1.0372 l -6.95508,0 0,1 6.95508,0 c 1.12797,0 2.05859,-0.9137 2.05859,-2.0372 0,-1.1234 -0.93062,-2.0371 -2.05859,-2.0371 l -4.43946,0 c -0.0189,-0.033 -0.0413,-0.08 -0.0586,-0.1113 -0.0794,-0.1434 -0.16529,-0.2835 -0.25781,-0.418 -0.18517,-0.269 -0.39595,-0.5198 -0.62891,-0.748 -0.93169,-0.9129 -2.22305,-1.4727 -3.64258,-1.4727 l -4.69531,0 0,-0.8398 c -3e-5,-0.2761 -0.22387,-0.5 -0.5,-0.5 l -2.73633,0 z m 0.5,1 2.23437,0 2.23633,0 0,9.2479 -2.23633,0 -2.23437,0 z" color="#000" font-family="sans-serif" font-weight="400" overflow="visible" style="line-height:normal;text-indent:0;text-align:start;text-decoration-line:none;text-decoration-style:solid;text-decoration-color:#000;text-transform:none;block-progression:tb;isolation:auto;mix-blend-mode:normal"/></g></svg>